<svg width="1062" height="1265" viewBox="0 0 1062 1265" fill="none" xmlns="http://www.w3.org/2000/svg">
<g opacity="0.29827">
<path d="M1007.08 933.448L442.182 413.142V22.8104L27.1096 0C23.9043 7.54402 3.36709 29.2855 6.57176 41.404C10.43 55.898 29.8387 51.2648 35.4776 60.5906C42.0661 71.58 30.7291 116.251 27.3457 129.14C20.8759 153.555 6.09676 173.335 1.82235 197.75C-5.35982 238.737 9.18245 235.47 36.7242 261.073C83.141 304.258 45.9244 349.048 57.6176 399.777C67.1146 441.122 108.605 462.446 123.8 503.789C135.553 535.63 151.697 543.767 176.746 567.053C176.153 552.916 163.51 511.215 187.253 514.898C210.817 518.522 201.736 553.331 206.247 567.885C210.045 580.003 236.933 604.239 214.616 615.407C207.196 619.09 186.066 604.418 177.577 600.497C183.572 619.209 179.774 638.633 189.271 656.513C200.608 677.838 212.835 669.641 227.853 681.225C243.344 693.164 241.683 706.886 234.797 724.945C227.615 743.775 220.196 740.865 231.592 763.557C239.843 779.951 253.85 800.742 265.9 813.216C272.904 820.463 280.502 822.127 287.506 831.393C293.323 839.115 291.067 849.214 298.012 856.164C309.883 868.104 330.006 868.282 339.384 883.904C349.831 901.309 337.96 914.437 368.706 912.833C370.309 947.643 376.897 979.185 376.541 1013.99C393.695 1020.82 421.414 1012.69 439.399 1009.06C457.266 1033.18 480.355 1016.43 500.774 1029.56C509.678 1035.26 507.837 1049.52 513.239 1054.51C524.339 1064.72 532.529 1058.31 546.301 1061.87C556.51 1064.49 564.404 1071.97 574.138 1074.7C583.338 1077.26 598.475 1071.26 605.301 1079.4C613.492 1089.14 599.78 1106.96 612.127 1114.8C622.395 1121.33 637.115 1105.77 647.088 1108.03C658.721 1110.7 692.079 1141.17 700.271 1151.21C709.59 1162.68 718.969 1184.06 724.25 1198.79C732.501 1221.84 731.373 1233.13 748.408 1250C759.27 1260.75 748.942 1261.52 766.63 1264.67C778.204 1266.75 793.518 1258.37 805.212 1257.07C829.549 1254.39 854.122 1259.03 878.102 1254.45C900.421 1250.18 921.729 1243.17 944.64 1239.9C964.465 1237.05 999.367 1239.25 1016.94 1229.8C1035.99 1219.64 1037.71 1196.65 1010.17 1200.93C1007.97 1186.26 1017.77 1166 1006.85 1155.85C1022.04 1135.06 1027.56 1120.38 1029.93 1094.96C1031 1083.79 1031.48 1071.44 1037 1062.05C1042.4 1052.78 1057.59 1047.26 1060.56 1039.3C1065.13 1026.94 1057.83 1021.42 1052.25 1014.53C1048.69 1010.07 1038.54 1012.21 1035.63 1008.29C1030.23 1001.1 1035.57 993.678 1032.6 986.431C1023.94 965.462 1013.61 957.205 1007.08 933.444C1007.26 937.424 1007.44 941.463 1007.2 945.384" stroke="white" stroke-width="2" stroke-linecap="round" stroke-linejoin="round"/>
</g>
<path d="M728.114 853.939C719.546 877.321 739.614 885.526 755.675 900.807C760.434 905.336 760.888 912.817 755.879 917.342C745.107 927.074 704.264 912.917 706.854 925.745C709.53 938.994 744.061 957.531 745.618 958.799C759.284 969.932 763.735 998.174 756.208 1013.66C750.852 1024.68 715.342 1020.96 704.172 1017.29C631.024 993.266 663.985 996.131 581.817 988.67C575.527 988.099 568.935 987.806 562.894 989.65C556.671 991.549 556.869 999.339 558.957 1003.55C565.876 1017.51 596.849 1041.18 588.514 1059.52C585.956 1065.15 579.963 1068.71 577.264 1074.27C575.151 1078.63 575.385 1083.77 574.445 1088.52" stroke="white" stroke-width="2"/>
<path fill-rule="evenodd" clip-rule="evenodd" d="M572.5 1096C576.09 1096 579 1093.09 579 1089.5C579 1085.91 576.09 1083 572.5 1083C568.91 1083 566 1085.91 566 1089.5C566 1093.09 568.91 1096 572.5 1096Z" />
<path fill-rule="evenodd" clip-rule="evenodd" d="M660 1133C661.657 1133 663 1131.66 663 1130C663 1128.34 661.657 1127 660 1127C658.343 1127 657 1128.34 657 1130C657 1131.66 658.343 1133 660 1133Z" />
<path fill-rule="evenodd" clip-rule="evenodd" d="M724 1241C725.657 1241 727 1239.66 727 1238C727 1236.34 725.657 1235 724 1235C722.343 1235 721 1236.34 721 1238C721 1239.66 722.343 1241 724 1241Z" />
<path fill-rule="evenodd" clip-rule="evenodd" d="M364 998C365.657 998 367 996.657 367 995C367 993.343 365.657 992 364 992C362.343 992 361 993.343 361 995C361 996.657 362.343 998 364 998Z" />
<path fill-rule="evenodd" clip-rule="evenodd" d="M728.5 861C732.09 861 735 858.09 735 854.5C735 850.91 732.09 848 728.5 848C724.91 848 722 850.91 722 854.5C722 858.09 724.91 861 728.5 861Z" />
<path d="M397.41 1080.98L395.17 1092H393.218L391.186 1082.77L389.138 1092H387.234L384.994 1080.98H386.482L388.258 1090.67L390.386 1080.98H392.002L394.178 1090.67L396.018 1080.98H397.41ZM405.544 1087.54C405.544 1087.78 405.534 1088.03 405.512 1088.29H400.136C400.2 1089.22 400.435 1089.9 400.84 1090.34C401.246 1090.77 401.768 1090.99 402.408 1090.99C402.814 1090.99 403.187 1090.93 403.528 1090.82C403.87 1090.7 404.227 1090.51 404.6 1090.26L405.24 1091.14C404.344 1091.84 403.363 1092.19 402.296 1092.19C401.123 1092.19 400.206 1091.81 399.544 1091.04C398.894 1090.27 398.568 1089.22 398.568 1087.87C398.568 1087 398.707 1086.22 398.984 1085.55C399.272 1084.87 399.678 1084.34 400.2 1083.95C400.734 1083.57 401.358 1083.38 402.072 1083.38C403.192 1083.38 404.051 1083.74 404.648 1084.48C405.246 1085.22 405.544 1086.23 405.544 1087.54ZM404.088 1087.1C404.088 1086.27 403.923 1085.64 403.592 1085.2C403.262 1084.76 402.766 1084.54 402.104 1084.54C400.899 1084.54 400.243 1085.43 400.136 1087.2H404.088V1087.1ZM410.183 1083.38C410.759 1083.38 411.276 1083.46 411.735 1083.62C412.194 1083.78 412.631 1084.02 413.047 1084.34L412.423 1085.26C412.039 1085.02 411.671 1084.84 411.319 1084.72C410.978 1084.6 410.615 1084.54 410.231 1084.54C409.751 1084.54 409.372 1084.65 409.095 1084.85C408.818 1085.04 408.679 1085.31 408.679 1085.65C408.679 1085.99 408.807 1086.26 409.063 1086.45C409.33 1086.64 409.804 1086.83 410.487 1087.01C411.426 1087.24 412.124 1087.56 412.583 1087.97C413.052 1088.37 413.287 1088.93 413.287 1089.63C413.287 1090.46 412.962 1091.1 412.311 1091.54C411.671 1091.97 410.887 1092.19 409.959 1092.19C408.679 1092.19 407.618 1091.82 406.775 1091.09L407.559 1090.19C408.274 1090.74 409.063 1091.01 409.927 1091.01C410.482 1091.01 410.919 1090.9 411.239 1090.67C411.57 1090.44 411.735 1090.12 411.735 1089.73C411.735 1089.44 411.676 1089.21 411.559 1089.04C411.442 1088.86 411.239 1088.7 410.951 1088.58C410.663 1088.44 410.242 1088.29 409.687 1088.14C408.791 1087.91 408.14 1087.59 407.735 1087.2C407.34 1086.81 407.143 1086.3 407.143 1085.7C407.143 1085.26 407.271 1084.86 407.527 1084.51C407.794 1084.15 408.156 1083.87 408.615 1083.68C409.084 1083.48 409.607 1083.38 410.183 1083.38ZM419.62 1091.62C419.065 1092 418.436 1092.19 417.732 1092.19C417.017 1092.19 416.457 1091.99 416.052 1091.58C415.657 1091.17 415.46 1090.57 415.46 1089.79V1084.7H413.988V1083.57H415.46V1081.66L416.932 1081.49V1083.57H418.932L418.772 1084.7H416.932V1089.73C416.932 1090.17 417.006 1090.49 417.156 1090.69C417.316 1090.88 417.577 1090.98 417.94 1090.98C418.27 1090.98 418.644 1090.86 419.06 1090.64L419.62 1091.62ZM428.179 1080.78C428.915 1080.78 429.545 1080.89 430.067 1081.1C430.59 1081.31 431.097 1081.63 431.587 1082.06L430.755 1082.99C430.339 1082.66 429.929 1082.42 429.523 1082.27C429.129 1082.11 428.702 1082.03 428.243 1082.03C427.667 1082.03 427.193 1082.17 426.819 1082.43C426.446 1082.7 426.259 1083.09 426.259 1083.6C426.259 1083.92 426.323 1084.19 426.451 1084.42C426.579 1084.63 426.814 1084.83 427.155 1085.01C427.507 1085.19 428.014 1085.38 428.675 1085.58C429.369 1085.8 429.945 1086.03 430.403 1086.27C430.862 1086.52 431.23 1086.86 431.507 1087.3C431.795 1087.72 431.939 1088.27 431.939 1088.93C431.939 1089.57 431.779 1090.13 431.459 1090.62C431.15 1091.11 430.697 1091.5 430.099 1091.78C429.513 1092.05 428.814 1092.19 428.003 1092.19C426.478 1092.19 425.23 1091.72 424.259 1090.77L425.091 1089.84C425.539 1090.2 425.993 1090.48 426.451 1090.67C426.91 1090.85 427.422 1090.94 427.987 1090.94C428.67 1090.94 429.235 1090.78 429.683 1090.45C430.131 1090.11 430.355 1089.62 430.355 1088.98C430.355 1088.61 430.286 1088.31 430.147 1088.08C430.009 1087.83 429.769 1087.62 429.427 1087.42C429.097 1087.23 428.611 1087.04 427.971 1086.85C426.841 1086.51 426.014 1086.1 425.491 1085.62C424.969 1085.14 424.707 1084.49 424.707 1083.66C424.707 1083.11 424.851 1082.61 425.139 1082.18C425.438 1081.74 425.849 1081.4 426.371 1081.15C426.905 1080.91 427.507 1080.78 428.179 1080.78ZM438.066 1083.38C438.834 1083.38 439.431 1083.61 439.858 1084.06C440.295 1084.52 440.514 1085.15 440.514 1085.95V1092H439.042V1086.16C439.042 1085.56 438.925 1085.14 438.69 1084.9C438.466 1084.65 438.135 1084.53 437.698 1084.53C437.261 1084.53 436.871 1084.66 436.53 1084.91C436.189 1085.17 435.869 1085.53 435.57 1086V1092H434.098V1080.19L435.57 1080.03V1084.74C436.231 1083.83 437.063 1083.38 438.066 1083.38ZM446.641 1083.38C447.825 1083.38 448.742 1083.77 449.393 1084.56C450.054 1085.35 450.385 1086.42 450.385 1087.78C450.385 1088.65 450.236 1089.42 449.937 1090.1C449.638 1090.76 449.206 1091.27 448.641 1091.65C448.076 1092.01 447.404 1092.19 446.625 1092.19C445.441 1092.19 444.518 1091.8 443.857 1091.01C443.196 1090.22 442.865 1089.15 442.865 1087.79C442.865 1086.92 443.014 1086.15 443.313 1085.49C443.612 1084.82 444.044 1084.3 444.609 1083.94C445.174 1083.56 445.852 1083.38 446.641 1083.38ZM446.641 1084.56C445.18 1084.56 444.449 1085.64 444.449 1087.79C444.449 1089.94 445.174 1091.01 446.625 1091.01C448.076 1091.01 448.801 1089.93 448.801 1087.78C448.801 1085.63 448.081 1084.56 446.641 1084.56ZM456.481 1083.38C456.78 1083.38 457.057 1083.41 457.313 1083.47L457.041 1084.91C456.785 1084.85 456.54 1084.82 456.305 1084.82C455.782 1084.82 455.361 1085.01 455.041 1085.39C454.721 1085.78 454.47 1086.37 454.289 1087.18V1092H452.817V1083.57H454.081L454.225 1085.28C454.449 1084.65 454.753 1084.18 455.137 1083.86C455.521 1083.54 455.969 1083.38 456.481 1083.38ZM464.872 1087.54C464.872 1087.78 464.862 1088.03 464.84 1088.29H459.464C459.528 1089.22 459.763 1089.9 460.168 1090.34C460.574 1090.77 461.096 1090.99 461.736 1090.99C462.142 1090.99 462.515 1090.93 462.856 1090.82C463.198 1090.7 463.555 1090.51 463.928 1090.26L464.568 1091.14C463.672 1091.84 462.691 1092.19 461.624 1092.19C460.451 1092.19 459.534 1091.81 458.872 1091.04C458.222 1090.27 457.896 1089.22 457.896 1087.87C457.896 1087 458.035 1086.22 458.312 1085.55C458.6 1084.87 459.006 1084.34 459.528 1083.95C460.062 1083.57 460.686 1083.38 461.4 1083.38C462.52 1083.38 463.379 1083.74 463.976 1084.48C464.574 1085.22 464.872 1086.23 464.872 1087.54ZM463.416 1087.1C463.416 1086.27 463.251 1085.64 462.92 1085.2C462.59 1084.76 462.094 1084.54 461.432 1084.54C460.227 1084.54 459.571 1085.43 459.464 1087.2H463.416V1087.1ZM473.41 1079.18V1093.57H473.058V1079.18H473.41ZM492.237 1092H490.765L490.381 1087.02C490.221 1085.07 490.131 1083.57 490.109 1082.53L487.725 1090.75H486.301L483.789 1082.51C483.789 1083.85 483.72 1085.39 483.581 1087.14L483.213 1092H481.773L482.685 1080.98H484.733L487.053 1088.99L489.261 1080.98H491.325L492.237 1092ZM500.434 1090.03C500.434 1090.37 500.493 1090.63 500.61 1090.8C500.728 1090.96 500.904 1091.08 501.138 1091.17L500.802 1092.19C500.365 1092.14 500.013 1092.02 499.746 1091.82C499.48 1091.63 499.282 1091.33 499.154 1090.93C498.589 1091.77 497.752 1092.19 496.642 1092.19C495.81 1092.19 495.154 1091.96 494.674 1091.49C494.194 1091.02 493.954 1090.41 493.954 1089.65C493.954 1088.75 494.274 1088.06 494.914 1087.58C495.565 1087.1 496.482 1086.86 497.666 1086.86H498.962V1086.24C498.962 1085.64 498.818 1085.22 498.53 1084.96C498.242 1084.7 497.8 1084.58 497.202 1084.58C496.584 1084.58 495.826 1084.73 494.93 1085.02L494.562 1083.95C495.608 1083.57 496.578 1083.38 497.474 1083.38C498.466 1083.38 499.208 1083.62 499.698 1084.11C500.189 1084.59 500.434 1085.28 500.434 1086.18V1090.03ZM496.978 1091.09C497.821 1091.09 498.482 1090.65 498.962 1089.78V1087.84H497.858C496.301 1087.84 495.522 1088.42 495.522 1089.57C495.522 1090.07 495.645 1090.45 495.89 1090.7C496.136 1090.96 496.498 1091.09 496.978 1091.09ZM504.981 1092.19C504.437 1092.19 504.005 1092.03 503.685 1091.71C503.376 1091.38 503.221 1090.92 503.221 1090.34V1080.18L504.693 1080V1090.3C504.693 1090.54 504.731 1090.71 504.805 1090.82C504.891 1090.92 505.029 1090.98 505.221 1090.98C505.424 1090.98 505.605 1090.94 505.765 1090.88L506.149 1091.9C505.797 1092.1 505.408 1092.19 504.981 1092.19ZM509.461 1083.57V1092H507.989V1083.57H509.461ZM508.709 1079.52C509.018 1079.52 509.269 1079.62 509.461 1079.81C509.653 1080 509.749 1080.24 509.749 1080.53C509.749 1080.82 509.653 1081.06 509.461 1081.25C509.269 1081.43 509.018 1081.52 508.709 1081.52C508.41 1081.52 508.165 1081.43 507.973 1081.25C507.781 1081.06 507.685 1080.82 507.685 1080.53C507.685 1080.24 507.781 1080 507.973 1079.81C508.165 1079.62 508.41 1079.52 508.709 1079.52ZM516.36 1083.38C517.32 1083.38 518.083 1083.77 518.648 1084.54C519.214 1085.31 519.496 1086.39 519.496 1087.78C519.496 1088.65 519.363 1089.42 519.096 1090.1C518.83 1090.76 518.446 1091.27 517.944 1091.65C517.443 1092.01 516.856 1092.19 516.184 1092.19C515.299 1092.19 514.552 1091.82 513.944 1091.07L513.8 1092H512.504V1080.18L513.976 1080V1084.62C514.584 1083.79 515.379 1083.38 516.36 1083.38ZM515.832 1091.02C516.483 1091.02 516.99 1090.76 517.352 1090.24C517.726 1089.71 517.912 1088.89 517.912 1087.78C517.912 1086.63 517.742 1085.81 517.4 1085.31C517.059 1084.8 516.574 1084.54 515.944 1084.54C515.198 1084.54 514.542 1084.98 513.976 1085.86V1089.89C514.2 1090.24 514.472 1090.52 514.792 1090.72C515.123 1090.92 515.47 1091.02 515.832 1091.02ZM528.276 1092H527.012L526.9 1090.69C526.58 1091.21 526.212 1091.59 525.796 1091.84C525.38 1092.07 524.874 1092.19 524.276 1092.19C523.54 1092.19 522.964 1091.97 522.548 1091.52C522.132 1091.07 521.924 1090.44 521.924 1089.62V1083.57H523.396V1089.46C523.396 1090.03 523.498 1090.44 523.7 1090.69C523.903 1090.92 524.234 1091.04 524.692 1091.04C525.514 1091.04 526.218 1090.55 526.804 1089.58V1083.57H528.276V1092ZM531.701 1089.97C532.021 1089.97 532.288 1090.07 532.501 1090.29C532.714 1090.5 532.821 1090.76 532.821 1091.07C532.821 1091.4 532.725 1091.78 532.533 1092.21L531.461 1094.66H530.405L531.045 1092C530.906 1091.89 530.794 1091.76 530.709 1091.6C530.634 1091.44 530.597 1091.26 530.597 1091.07C530.597 1090.76 530.704 1090.5 530.917 1090.29C531.13 1090.07 531.392 1089.97 531.701 1089.97ZM543.331 1080.78C543.992 1080.78 544.547 1080.87 544.995 1081.04C545.454 1081.21 545.918 1081.49 546.387 1081.87L545.555 1082.85C544.883 1082.3 544.174 1082.03 543.427 1082.03C542.51 1082.03 541.768 1082.38 541.203 1083.09C540.648 1083.79 540.371 1084.92 540.371 1086.48C540.371 1087.99 540.648 1089.11 541.203 1089.84C541.758 1090.55 542.494 1090.91 543.411 1090.91C543.88 1090.91 544.291 1090.83 544.643 1090.67C544.995 1090.51 545.368 1090.29 545.763 1090L546.515 1090.96C546.174 1091.31 545.736 1091.61 545.203 1091.84C544.67 1092.07 544.056 1092.19 543.363 1092.19C542.467 1092.19 541.667 1091.97 540.963 1091.54C540.27 1091.09 539.726 1090.44 539.331 1089.58C538.947 1088.72 538.755 1087.69 538.755 1086.48C538.755 1085.27 538.958 1084.25 539.363 1083.39C539.768 1082.53 540.318 1081.88 541.011 1081.44C541.704 1081 542.478 1080.78 543.331 1080.78ZM554.3 1092L553.468 1089.23H549.292L548.46 1092H546.924L550.46 1080.98H552.38L555.9 1092H554.3ZM549.66 1088H553.1L551.388 1082.24L549.66 1088Z" fill="white"/>
<path d="M597.378 845.784C598.039 845.784 598.594 845.869 599.042 846.04C599.501 846.211 599.965 846.488 600.434 846.872L599.602 847.848C598.93 847.304 598.221 847.032 597.474 847.032C596.557 847.032 595.815 847.384 595.25 848.088C594.695 848.792 594.418 849.923 594.418 851.48C594.418 852.995 594.695 854.115 595.25 854.84C595.805 855.555 596.541 855.912 597.458 855.912C597.927 855.912 598.338 855.832 598.69 855.672C599.042 855.512 599.415 855.288 599.81 855L600.562 855.96C600.221 856.312 599.783 856.605 599.25 856.84C598.717 857.075 598.103 857.192 597.41 857.192C596.514 857.192 595.714 856.973 595.01 856.536C594.317 856.088 593.773 855.437 593.378 854.584C592.994 853.72 592.802 852.685 592.802 851.48C592.802 850.275 593.005 849.245 593.41 848.392C593.815 847.528 594.365 846.877 595.058 846.44C595.751 846.003 596.525 845.784 597.378 845.784ZM608.401 857H607.137L607.025 855.688C606.705 856.211 606.337 856.595 605.921 856.84C605.505 857.075 604.999 857.192 604.401 857.192C603.665 857.192 603.089 856.968 602.673 856.52C602.257 856.072 602.049 855.437 602.049 854.616V848.568H603.521V854.456C603.521 855.032 603.623 855.443 603.825 855.688C604.028 855.923 604.359 856.04 604.817 856.04C605.639 856.04 606.343 855.555 606.929 854.584V848.568H608.401V857ZM615.106 848.376C615.405 848.376 615.682 848.408 615.938 848.472L615.666 849.912C615.41 849.848 615.165 849.816 614.93 849.816C614.407 849.816 613.986 850.008 613.666 850.392C613.346 850.776 613.095 851.373 612.914 852.184V857H611.442V848.568H612.706L612.85 850.28C613.074 849.651 613.378 849.176 613.762 848.856C614.146 848.536 614.594 848.376 615.106 848.376ZM621.278 848.376C621.576 848.376 621.854 848.408 622.11 848.472L621.838 849.912C621.582 849.848 621.336 849.816 621.102 849.816C620.579 849.816 620.158 850.008 619.838 850.392C619.518 850.776 619.267 851.373 619.086 852.184V857H617.614V848.568H618.878L619.022 850.28C619.246 849.651 619.55 849.176 619.934 848.856C620.318 848.536 620.766 848.376 621.278 848.376ZM629.669 852.536C629.669 852.781 629.659 853.032 629.637 853.288H624.261C624.325 854.216 624.56 854.899 624.965 855.336C625.371 855.773 625.893 855.992 626.533 855.992C626.939 855.992 627.312 855.933 627.653 855.816C627.995 855.699 628.352 855.512 628.725 855.256L629.365 856.136C628.469 856.84 627.488 857.192 626.421 857.192C625.248 857.192 624.331 856.808 623.669 856.04C623.019 855.272 622.693 854.216 622.693 852.872C622.693 851.997 622.832 851.224 623.109 850.552C623.397 849.869 623.803 849.336 624.325 848.952C624.859 848.568 625.483 848.376 626.197 848.376C627.317 848.376 628.176 848.744 628.773 849.48C629.371 850.216 629.669 851.235 629.669 852.536ZM628.213 852.104C628.213 851.272 628.048 850.637 627.717 850.2C627.387 849.763 626.891 849.544 626.229 849.544C625.024 849.544 624.368 850.429 624.261 852.2H628.213V852.104ZM635.988 848.376C636.756 848.376 637.353 848.605 637.78 849.064C638.217 849.523 638.436 850.152 638.436 850.952V857H636.964V851.16C636.964 850.563 636.852 850.141 636.628 849.896C636.404 849.651 636.073 849.528 635.636 849.528C635.188 849.528 634.793 849.656 634.452 849.912C634.111 850.168 633.791 850.536 633.492 851.016V857H632.02V848.568H633.284L633.412 849.816C633.711 849.368 634.079 849.016 634.516 848.76C634.964 848.504 635.455 848.376 635.988 848.376ZM645.651 856.616C645.096 857 644.467 857.192 643.763 857.192C643.048 857.192 642.488 856.989 642.083 856.584C641.688 856.168 641.491 855.571 641.491 854.792V849.704H640.019V848.568H641.491V846.664L642.963 846.488V848.568H644.963L644.803 849.704H642.963V854.728C642.963 855.165 643.038 855.485 643.187 855.688C643.347 855.88 643.608 855.976 643.971 855.976C644.302 855.976 644.675 855.864 645.091 855.64L645.651 856.616ZM653.011 845.976V855.672H657.539L657.363 857H651.491V845.976H653.011ZM662.141 848.376C663.325 848.376 664.242 848.771 664.893 849.56C665.554 850.349 665.885 851.421 665.885 852.776C665.885 853.651 665.736 854.424 665.437 855.096C665.138 855.757 664.706 856.275 664.141 856.648C663.576 857.011 662.904 857.192 662.125 857.192C660.941 857.192 660.018 856.797 659.357 856.008C658.696 855.219 658.365 854.147 658.365 852.792C658.365 851.917 658.514 851.149 658.813 850.488C659.112 849.816 659.544 849.299 660.109 848.936C660.674 848.563 661.352 848.376 662.141 848.376ZM662.141 849.56C660.68 849.56 659.949 850.637 659.949 852.792C659.949 854.936 660.674 856.008 662.125 856.008C663.576 856.008 664.301 854.931 664.301 852.776C664.301 850.632 663.581 849.56 662.141 849.56ZM671.389 848.376C671.89 848.376 672.349 848.451 672.765 848.6C673.181 848.739 673.581 848.968 673.965 849.288L673.261 850.216C672.962 850.003 672.669 849.848 672.381 849.752C672.104 849.645 671.794 849.592 671.453 849.592C670.77 849.592 670.237 849.864 669.853 850.408C669.48 850.952 669.293 851.757 669.293 852.824C669.293 853.891 669.48 854.68 669.853 855.192C670.226 855.693 670.76 855.944 671.453 855.944C671.784 855.944 672.088 855.896 672.365 855.8C672.642 855.693 672.952 855.528 673.293 855.304L673.965 856.264C673.197 856.883 672.338 857.192 671.389 857.192C670.248 857.192 669.346 856.808 668.685 856.04C668.034 855.272 667.709 854.211 667.709 852.856C667.709 851.96 667.858 851.176 668.157 850.504C668.456 849.832 668.877 849.309 669.421 848.936C669.976 848.563 670.632 848.376 671.389 848.376ZM681.481 855.032C681.481 855.373 681.54 855.629 681.657 855.8C681.775 855.96 681.951 856.083 682.185 856.168L681.849 857.192C681.412 857.139 681.06 857.016 680.793 856.824C680.527 856.632 680.329 856.333 680.201 855.928C679.636 856.771 678.799 857.192 677.689 857.192C676.857 857.192 676.201 856.957 675.721 856.488C675.241 856.019 675.001 855.405 675.001 854.648C675.001 853.752 675.321 853.064 675.961 852.584C676.612 852.104 677.529 851.864 678.713 851.864H680.009V851.24C680.009 850.643 679.865 850.216 679.577 849.96C679.289 849.704 678.847 849.576 678.249 849.576C677.631 849.576 676.873 849.725 675.977 850.024L675.609 848.952C676.655 848.568 677.625 848.376 678.521 848.376C679.513 848.376 680.255 848.621 680.745 849.112C681.236 849.592 681.481 850.28 681.481 851.176V855.032ZM678.025 856.088C678.868 856.088 679.529 855.651 680.009 854.776V852.84H678.905C677.348 852.84 676.569 853.416 676.569 854.568C676.569 855.069 676.692 855.448 676.937 855.704C677.183 855.96 677.545 856.088 678.025 856.088ZM688.76 856.616C688.206 857 687.576 857.192 686.872 857.192C686.158 857.192 685.598 856.989 685.192 856.584C684.798 856.168 684.6 855.571 684.6 854.792V849.704H683.128V848.568H684.6V846.664L686.072 846.488V848.568H688.072L687.912 849.704H686.072V854.728C686.072 855.165 686.147 855.485 686.296 855.688C686.456 855.88 686.718 855.976 687.08 855.976C687.411 855.976 687.784 855.864 688.2 855.64L688.76 856.616ZM691.758 848.568V857H690.286V848.568H691.758ZM691.006 844.52C691.315 844.52 691.566 844.616 691.758 844.808C691.95 845 692.046 845.24 692.046 845.528C692.046 845.816 691.95 846.056 691.758 846.248C691.566 846.429 691.315 846.52 691.006 846.52C690.707 846.52 690.462 846.429 690.27 846.248C690.078 846.056 689.982 845.816 689.982 845.528C689.982 845.24 690.078 845 690.27 844.808C690.462 844.616 690.707 844.52 691.006 844.52ZM697.969 848.376C699.153 848.376 700.071 848.771 700.721 849.56C701.383 850.349 701.713 851.421 701.713 852.776C701.713 853.651 701.564 854.424 701.265 855.096C700.967 855.757 700.535 856.275 699.969 856.648C699.404 857.011 698.732 857.192 697.953 857.192C696.769 857.192 695.847 856.797 695.185 856.008C694.524 855.219 694.193 854.147 694.193 852.792C694.193 851.917 694.343 851.149 694.641 850.488C694.94 849.816 695.372 849.299 695.937 848.936C696.503 848.563 697.18 848.376 697.969 848.376ZM697.969 849.56C696.508 849.56 695.777 850.637 695.777 852.792C695.777 854.936 696.503 856.008 697.953 856.008C699.404 856.008 700.129 854.931 700.129 852.776C700.129 850.632 699.409 849.56 697.969 849.56ZM708.113 848.376C708.881 848.376 709.478 848.605 709.905 849.064C710.342 849.523 710.561 850.152 710.561 850.952V857H709.089V851.16C709.089 850.563 708.977 850.141 708.753 849.896C708.529 849.651 708.198 849.528 707.761 849.528C707.313 849.528 706.918 849.656 706.577 849.912C706.236 850.168 705.916 850.536 705.617 851.016V857H704.145V848.568H705.409L705.537 849.816C705.836 849.368 706.204 849.016 706.641 848.76C707.089 848.504 707.58 848.376 708.113 848.376Z" fill="white"/>
</svg>
