<?xml version="1.0" encoding="utf-8"?><svg xmlns="http://www.w3.org/2000/svg" xmlns:xlink="http://www.w3.org/1999/xlink"><symbol viewBox="0 0 25 21" id="arrow-left" xmlns="http://www.w3.org/2000/svg"><path d="M8.778.563.564 8.713a1.92 1.92 0 0 0 0 2.72l8.214 8.155a1.958 1.958 0 0 0 2.745 0 1.922 1.922 0 0 0 0-2.719l-4.805-4.767h15.414a2.012 2.012 0 1 0 0-4.027H6.69l4.834-4.792a1.92 1.92 0 0 0 0-2.718A1.953 1.953 0 0 0 8.778.563Z"/></symbol><symbol viewBox="0 0 47 48" id="camp" xmlns="http://www.w3.org/2000/svg"><g filter="url(#ba)"><path d="M42.037 32.188H33.75a.484.484 0 0 0 0 .97h8.287a.484.484 0 0 0 0-.97Zm0 6.152h-9.291a.484.484 0 0 0 0 .97h9.291a.484.484 0 0 0 0-.97ZM4.481 35.692h7.493a.484.484 0 0 0 0-.971H4.481a.484.484 0 0 0-.481.485c0 .27.216.486.481.486Z"/><path fill-rule="evenodd" clip-rule="evenodd" d="M7.745.535A.478.478 0 0 1 8.3.627a.49.49 0 0 1 .088.562 4.263 4.263 0 0 0-.45 1.91c0 2.378 1.93 4.314 4.3 4.314a4.25 4.25 0 0 0 1.907-.453.478.478 0 0 1 .555.092.488.488 0 0 1 .09.56 5.231 5.231 0 0 1-4.711 2.94c-2.902 0-5.263-2.372-5.263-5.286A5.258 5.258 0 0 1 7.745.535Zm5.383 7.772a5.155 5.155 0 0 1-.89.076c-2.902 0-5.262-2.37-5.26-5.284 0-.303.024-.6.075-.894a4.286 4.286 0 0 0-1.274 3.061c0 2.38 1.93 4.315 4.3 4.315a4.256 4.256 0 0 0 3.049-1.274ZM42.039 24.41h-.002a.484.484 0 0 0-.481.483l-.012 2.592L23.677.923c-.179-.267-.617-.267-.797 0L5.025 27.466l.012-2.75a.483.483 0 0 0-.48-.488h-.002a.484.484 0 0 0-.481.483l-.017 4.342a.486.486 0 0 0 .481.487.485.485 0 0 0 .399-.212l2.81-4.177v3.905c0 .268.216.486.481.486h10.724a4.368 4.368 0 0 0 4.168 3.094l.019-.001a.226.226 0 0 1 .028 0h.027l.01-.002a4.366 4.366 0 0 0 4.081-3.091H38.33a.484.484 0 0 0 .482-.486v-3.905l2.81 4.177a.477.477 0 0 0 .538.191.485.485 0 0 0 .34-.463l.019-4.159a.482.482 0 0 0-.48-.487Zm-18.806 7.25h-.006l-.07.003a1.535 1.535 0 0 1-1.512-1.531c0-.552.805-1.822 1.531-2.78.726.958 1.531 2.228 1.531 2.78 0 .824-.656 1.497-1.474 1.528Zm2.435-1.53c0 .144-.018.28-.041.417.551-.607.89-1.409.886-2.29 0-1.454-2.19-4.548-3.397-6.088-1.205 1.54-3.397 4.636-3.397 6.088 0 .955.397 1.82 1.031 2.44a2.567 2.567 0 0 1-.07-.567c0-1.229 1.77-3.437 2.124-3.868a.496.496 0 0 1 .741 0c.355.43 2.123 2.64 2.123 3.868Zm-2.177-9.041a.496.496 0 0 0-.742 0c-.408.495-3.989 4.908-3.989 7.168 0 .076.005.151.01.226l.005.089h-4.848v-3.2c.628-.512 2.71-2.287 4.818-4.92 1.712-2.137 3.666-5.157 4.552-8.6.886 3.445 2.84 6.463 4.551 8.6 2.109 2.633 4.19 4.408 4.82 4.92v3.2h-5.205c.007-.104.015-.209.015-.315.002-2.26-3.58-6.673-3.987-7.168Zm10.137 7.483h4.22l.003-4.852L23.28 2.061 8.71 23.721v4.85h4.252v-3.435c0-.151.07-.293.188-.384.117-.092 9.663-7.635 9.663-16.562 0-.267.217-.485.482-.485s.481.218.481.485c0 8.924 9.54 16.464 9.663 16.561a.49.49 0 0 1 .189.385v3.436Z"/><path fill-rule="evenodd" clip-rule="evenodd" d="M30.596 34.433a.488.488 0 0 1-.304.622l-1.781.593 1.711.487a.486.486 0 0 1 .331.605l-.615 2.09a.48.48 0 0 1-.592.327l-6.128-1.746-5.624 1.875a.474.474 0 0 1-.602-.301l-.709-2.061a.486.486 0 0 1 .303-.62l1.486-.495-1.785-.508a.485.485 0 0 1-.331-.605l.615-2.089a.48.48 0 0 1 .592-.33l6.201 1.767 5.917-1.973a.48.48 0 0 1 .606.301l.709 2.061Zm-13.237-1.092-.342 1.158 2.686.766 2.03-.677-4.374-1.247Zm12.131 3.594-.342 1.159-4.3-1.227 2.032-.677 2.61.745Zm-12.14.137.393 1.143 11.783-3.928-.393-1.143-11.783 3.928Z"/></g><defs><filter id="ba" x="0" y=".484" width="46.519" height="46.827" filterUnits="userSpaceOnUse" color-interpolation-filters="sRGB"><feFlood flood-opacity="0" result="BackgroundImageFix"/><feColorMatrix in="SourceAlpha" values="0 0 0 0 0 0 0 0 0 0 0 0 0 0 0 0 0 0 127 0" result="hardAlpha"/><feOffset dy="4"/><feGaussianBlur stdDeviation="2"/><feColorMatrix values="0 0 0 0 0 0 0 0 0 0 0 0 0 0 0 0 0 0 0.25 0"/><feBlend in2="BackgroundImageFix" result="effect1_dropShadow_0_2932"/><feBlend in="SourceGraphic" in2="effect1_dropShadow_0_2932" result="shape"/></filter></defs></symbol><symbol viewBox="0 0 21 24" id="down-arrows" xmlns="http://www.w3.org/2000/svg"><path d="M10.307 23.888c.398-.04.775-.2 1.078-.46l8.139-6.977a1.937 1.937 0 0 0-1.093-3.447 1.94 1.94 0 0 0-1.426.504l-6.88 5.899-6.88-5.9a1.94 1.94 0 0 0-2.78.17 1.937 1.937 0 0 0 .26 2.774l8.14 6.977c.399.342.92.507 1.442.46Zm0-13c.398-.04.775-.2 1.078-.46l8.139-6.977a1.937 1.937 0 1 0-2.52-2.943l-6.879 5.898L3.245.508a1.94 1.94 0 0 0-2.78.17 1.937 1.937 0 0 0 .26 2.774l8.14 6.976c.399.342.92.507 1.442.46Z"/></symbol><symbol viewBox="0 0 19 25" id="drop" xmlns="http://www.w3.org/2000/svg"><path d="M5.248 15.744a2.702 2.702 0 0 1-2.7-2.7.575.575 0 0 1 1.15 0c0 .856.696 1.553 1.552 1.553.855 0 1.553-.697 1.553-1.552a.575.575 0 0 1 1.148 0 2.708 2.708 0 0 1-2.703 2.699Z"/><path d="M9.5 15.744a2.702 2.702 0 0 1-2.7-2.7.575.575 0 0 1 1.15 0c0 .856.696 1.553 1.552 1.553.855 0 1.553-.697 1.553-1.552a.575.575 0 0 1 1.148 0A2.708 2.708 0 0 1 9.5 15.744Z"/><path d="M13.752 15.744a2.702 2.702 0 0 1-2.7-2.7.575.575 0 0 1 1.15 0c0 .856.696 1.553 1.552 1.553.855 0 1.553-.697 1.553-1.552a.575.575 0 0 1 1.148 0 2.708 2.708 0 0 1-2.703 2.699Z"/><path fill-rule="evenodd" clip-rule="evenodd" d="M.422 15.069c0 5.005 4.072 9.077 9.078 9.077 5.006 0 9.078-4.071 9.08-9.077C18.58 8.237 10.237.795 9.881.48a.573.573 0 0 0-.74-.016C8.784.752.422 7.592.422 15.069ZM9.484 1.678Zm0 0c-1.62 1.42-7.916 7.324-7.916 13.39 0 4.373 3.557 7.93 7.93 7.93 4.373 0 7.93-3.557 7.93-7.93.001-5.543-6.338-11.876-7.944-13.39Z"/><path d="m9.5 24.146.112-.223-.053-.026H9.5v.25Zm0 0-.112.224.053.027h.06v-.25Zm9.08-9.077h.25-.25ZM9.881.48l-.166.187.166-.187Zm-.74-.016.156.195h.001L9.141.464Zm.343 1.212.165.189.502-.439h-.667v.25Zm0 0v-.25h-.629l.457.432.172-.182Zm7.943 13.391h-.25.25ZM9.5 23.897c-4.868 0-8.828-3.96-8.828-8.828h-.5c0 5.143 4.184 9.327 9.328 9.327v-.5Zm.113.026-.225.447.225-.447Zm8.717-8.854c-.002 4.867-3.962 8.828-8.83 8.828v.5c5.144 0 9.328-4.184 9.33-9.328h-.5ZM9.716.668c.172.152 2.334 2.08 4.45 4.815 2.125 2.747 4.164 6.258 4.164 9.586h.5c0-3.505-2.132-7.13-4.268-9.891C12.418 2.406 10.23.455 10.047.293l-.331.375ZM9.298.659c.123-.1.3-.095.417.009l.332-.374A.823.823 0 0 0 8.984.27l.314.388ZM.672 15.07c0-3.652 2.046-7.175 4.171-9.843C6.963 2.566 9.126.797 9.297.66L8.984.27c-.186.15-2.381 1.944-4.532 4.645C2.306 7.608.172 11.244.172 15.069h.5ZM9.32 1.489l.328.377-.328-.377Zm.164.438v-.5.5Zm.172-.431-.344.363.344-.363Zm-.337-.006c-.816.716-2.81 2.56-4.601 4.992-1.787 2.426-3.4 5.472-3.4 8.586h.5c0-2.953 1.536-5.892 3.302-8.29C6.882 4.389 8.846 2.57 9.65 1.867l-.33-.376Zm-8 13.578c0 4.511 3.668 8.18 8.179 8.18v-.5c-4.235 0-7.68-3.445-7.68-7.68h-.5Zm8.179 8.18c4.51 0 8.18-3.67 8.18-8.18h-.5c0 4.235-3.445 7.68-7.68 7.68v.5Zm8.18-8.18c0-2.854-1.625-5.879-3.417-8.353-1.798-2.483-3.797-4.457-4.605-5.22l-.343.365c.797.751 2.77 2.701 4.543 5.149 1.78 2.457 3.322 5.37 3.321 8.059h.5Z"/></symbol><symbol viewBox="0 0 1062 1265" id="map-surf" xmlns="http://www.w3.org/2000/svg"><path d="M1007.08 933.448 442.182 413.142V22.81L27.11 0C23.904 7.544 3.367 29.285 6.572 41.404c3.858 14.494 23.267 9.86 28.906 19.187 6.588 10.989-4.749 55.66-8.132 68.549-6.47 24.415-21.25 44.195-25.524 68.61-7.182 40.987 7.36 37.72 34.902 63.323 46.417 43.185 9.2 87.975 20.894 138.704 9.497 41.345 50.987 62.669 66.182 104.012 11.753 31.841 27.897 39.978 52.946 63.264-.593-14.137-13.236-55.838 10.507-52.155 23.564 3.624 14.483 38.433 18.994 52.987 3.798 12.118 30.686 36.354 8.369 47.522-7.42 3.683-28.55-10.989-37.039-14.91 5.995 18.712 2.197 38.136 11.694 56.016 11.337 21.325 23.564 13.128 38.582 24.712 15.491 11.939 13.83 25.661 6.944 43.72-7.182 18.83-14.601 15.92-3.205 38.612 8.251 16.394 22.258 37.185 34.308 49.659 7.004 7.247 14.602 8.911 21.606 18.177 5.817 7.722 3.561 17.821 10.506 24.771 11.871 11.94 31.994 12.118 41.372 27.74 10.447 17.405-1.424 30.533 29.322 28.929 1.603 34.81 8.191 66.352 7.835 101.157 17.154 6.83 44.873-1.3 62.858-4.93 17.867 24.12 40.956 7.37 61.375 20.5 8.904 5.7 7.063 19.96 12.465 24.95 11.1 10.21 19.29 3.8 33.062 7.36 10.209 2.62 18.103 10.1 27.837 12.83 9.2 2.56 24.337-3.44 31.163 4.7 8.191 9.74-5.521 27.56 6.826 35.4 10.268 6.53 24.988-9.03 34.961-6.77 11.633 2.67 44.991 33.14 53.183 43.18 9.319 11.47 18.698 32.85 23.979 47.58 8.251 23.05 7.123 34.34 24.158 51.21 10.862 10.75.534 11.52 18.222 14.67 11.574 2.08 26.888-6.3 38.582-7.6 24.337-2.68 48.91 1.96 72.89-2.62 22.319-4.27 43.627-11.28 66.538-14.55 19.825-2.85 54.727-.65 72.3-10.1 19.05-10.16 20.77-33.15-6.77-28.87-2.2-14.67 7.6-34.93-3.32-45.08 15.19-20.79 20.71-35.47 23.08-60.89 1.07-11.17 1.55-23.52 7.07-32.91 5.4-9.27 20.59-14.79 23.56-22.75 4.57-12.36-2.73-17.88-8.31-24.77-3.56-4.46-13.71-2.32-16.62-6.24-5.4-7.19-.06-14.612-3.03-21.859-8.66-20.969-18.99-29.226-25.52-52.987.18 3.98.36 8.019.12 11.94" opacity=".298"/><path d="M728.114 853.939c-8.568 23.382 11.5 31.587 27.561 46.868 4.759 4.529 5.213 12.01.204 16.535-10.772 9.732-51.615-4.425-49.025 8.403 2.676 13.249 37.207 31.786 38.764 33.054 13.666 11.133 18.117 39.375 10.59 54.861-5.356 11.02-40.866 7.3-52.036 3.63-73.148-24.024-40.187-21.159-122.355-28.62-6.29-.571-12.882-.864-18.923.98-6.223 1.899-6.025 9.689-3.937 13.9 6.919 13.96 37.892 37.63 29.557 55.97-2.558 5.63-8.551 9.19-11.25 14.75-2.113 4.36-1.879 9.5-2.819 14.25"/><path fill-rule="evenodd" clip-rule="evenodd" d="M572.5 1096a6.5 6.5 0 1 0 0-13 6.5 6.5 0 0 0 0 13Zm87.5 37c1.657 0 3-1.34 3-3s-1.343-3-3-3-3 1.34-3 3 1.343 3 3 3Zm64 108c1.657 0 3-1.34 3-3s-1.343-3-3-3-3 1.34-3 3 1.343 3 3 3ZM364 998a3 3 0 1 0 0-6 3 3 0 0 0 0 6Zm364.5-137a6.5 6.5 0 1 0 0-13 6.5 6.5 0 0 0 0 13Z"/><path d="m397.41 1080.98-2.24 11.02h-1.952l-2.032-9.23-2.048 9.23h-1.904l-2.24-11.02h1.488l1.776 9.69 2.128-9.69h1.616l2.176 9.69 1.84-9.69h1.392Zm8.134 6.56c0 .24-.01.49-.032.75h-5.376c.064.93.299 1.61.704 2.05.406.43.928.65 1.568.65.406 0 .779-.06 1.12-.17.342-.12.699-.31 1.072-.56l.64.88c-.896.7-1.877 1.05-2.944 1.05-1.173 0-2.09-.38-2.752-1.15-.65-.77-.976-1.82-.976-3.17 0-.87.139-1.65.416-2.32.288-.68.694-1.21 1.216-1.6.534-.38 1.158-.57 1.872-.57 1.12 0 1.979.36 2.576 1.1.598.74.896 1.75.896 3.06Zm-1.456-.44c0-.83-.165-1.46-.496-1.9-.33-.44-.826-.66-1.488-.66-1.205 0-1.861.89-1.968 2.66h3.952v-.1Zm6.095-3.72c.576 0 1.093.08 1.552.24.459.16.896.4 1.312.72l-.624.92a5.376 5.376 0 0 0-1.104-.54 3.255 3.255 0 0 0-1.088-.18c-.48 0-.859.11-1.136.31a.92.92 0 0 0-.416.8c0 .34.128.61.384.8.267.19.741.38 1.424.56.939.23 1.637.55 2.096.96.469.4.704.96.704 1.66 0 .83-.325 1.47-.976 1.91-.64.43-1.424.65-2.352.65-1.28 0-2.341-.37-3.184-1.1l.784-.9c.715.55 1.504.82 2.368.82.555 0 .992-.11 1.312-.34.331-.23.496-.55.496-.94 0-.29-.059-.52-.176-.69-.117-.18-.32-.34-.608-.46-.288-.14-.709-.29-1.264-.44-.896-.23-1.547-.55-1.952-.94-.395-.39-.592-.9-.592-1.5 0-.44.128-.84.384-1.19.267-.36.629-.64 1.088-.83.469-.2.992-.3 1.568-.3Zm9.437 8.24c-.555.38-1.184.57-1.888.57-.715 0-1.275-.2-1.68-.61-.395-.41-.592-1.01-.592-1.79v-5.09h-1.472v-1.13h1.472v-1.91l1.472-.17v2.08h2l-.16 1.13h-1.84v5.03c0 .44.074.76.224.96.16.19.421.29.784.29.33 0 .704-.12 1.12-.34l.56.98Zm8.559-10.84c.736 0 1.366.11 1.888.32.523.21 1.03.53 1.52.96l-.832.93a4.53 4.53 0 0 0-1.232-.72 3.37 3.37 0 0 0-1.28-.24c-.576 0-1.05.14-1.424.4-.373.27-.56.66-.56 1.17 0 .32.064.59.192.82.128.21.363.41.704.59.352.18.859.37 1.52.57.694.22 1.27.45 1.728.69.459.25.827.59 1.104 1.03.288.42.432.97.432 1.63 0 .64-.16 1.2-.48 1.69-.309.49-.762.88-1.36 1.16-.586.27-1.285.41-2.096.41-1.525 0-2.773-.47-3.744-1.42l.832-.93c.448.36.902.64 1.36.83.459.18.971.27 1.536.27.683 0 1.248-.16 1.696-.49.448-.34.672-.83.672-1.47 0-.37-.069-.67-.208-.9-.138-.25-.378-.46-.72-.66-.33-.19-.816-.38-1.456-.57-1.13-.34-1.957-.75-2.48-1.23-.522-.48-.784-1.13-.784-1.96 0-.55.144-1.05.432-1.48.299-.44.71-.78 1.232-1.03a4.364 4.364 0 0 1 1.808-.37Zm9.887 2.6c.768 0 1.365.23 1.792.68.437.46.656 1.09.656 1.89v6.05h-1.472v-5.84c0-.6-.117-1.02-.352-1.26-.224-.25-.555-.37-.992-.37-.437 0-.827.13-1.168.38-.341.26-.661.62-.96 1.09v6h-1.472v-11.81l1.472-.16v4.71c.661-.91 1.493-1.36 2.496-1.36Zm8.575 0c1.184 0 2.101.39 2.752 1.18.661.79.992 1.86.992 3.22 0 .87-.149 1.64-.448 2.32a3.618 3.618 0 0 1-1.296 1.55c-.565.36-1.237.54-2.016.54-1.184 0-2.107-.39-2.768-1.18-.661-.79-.992-1.86-.992-3.22 0-.87.149-1.64.448-2.3.299-.67.731-1.19 1.296-1.55.565-.38 1.243-.56 2.032-.56Zm0 1.18c-1.461 0-2.192 1.08-2.192 3.23s.725 3.22 2.176 3.22 2.176-1.08 2.176-3.23-.72-3.22-2.16-3.22Zm9.84-1.18c.299 0 .576.03.832.09l-.272 1.44a3.223 3.223 0 0 0-.736-.09c-.523 0-.944.19-1.264.57-.32.39-.571.98-.752 1.79v4.82h-1.472v-8.43h1.264l.144 1.71c.224-.63.528-1.1.912-1.42.384-.32.832-.48 1.344-.48Zm8.391 4.16c0 .24-.01.49-.032.75h-5.376c.064.93.299 1.61.704 2.05.406.43.928.65 1.568.65.406 0 .779-.06 1.12-.17.342-.12.699-.31 1.072-.56l.64.88c-.896.7-1.877 1.05-2.944 1.05-1.173 0-2.09-.38-2.752-1.15-.65-.77-.976-1.82-.976-3.17 0-.87.139-1.65.416-2.32.288-.68.694-1.21 1.216-1.6.534-.38 1.158-.57 1.872-.57 1.12 0 1.979.36 2.576 1.1.598.74.896 1.75.896 3.06Zm-1.456-.44c0-.83-.165-1.46-.496-1.9-.33-.44-.826-.66-1.488-.66-1.205 0-1.861.89-1.968 2.66h3.952v-.1Zm9.994-7.92v14.39h-.352v-14.39h.352Zm18.827 12.82h-1.472l-.384-4.98c-.16-1.95-.25-3.45-.272-4.49l-2.384 8.22h-1.424l-2.512-8.24c0 1.34-.069 2.88-.208 4.63l-.368 4.86h-1.44l.912-11.02h2.048l2.32 8.01 2.208-8.01h2.064l.912 11.02Zm8.197-1.97c0 .34.059.6.176.77.118.16.294.28.528.37l-.336 1.02c-.437-.05-.789-.17-1.056-.37-.266-.19-.464-.49-.592-.89-.565.84-1.402 1.26-2.512 1.26-.832 0-1.488-.23-1.968-.7s-.72-1.08-.72-1.84c0-.9.32-1.59.96-2.07.651-.48 1.568-.72 2.752-.72h1.296v-.62c0-.6-.144-1.02-.432-1.28-.288-.26-.73-.38-1.328-.38-.618 0-1.376.15-2.272.44l-.368-1.07c1.046-.38 2.016-.57 2.912-.57.992 0 1.734.24 2.224.73.491.48.736 1.17.736 2.07v3.85Zm-3.456 1.06c.843 0 1.504-.44 1.984-1.31v-1.94h-1.104c-1.557 0-2.336.58-2.336 1.73 0 .5.123.88.368 1.13.246.26.608.39 1.088.39Zm8.003 1.1c-.544 0-.976-.16-1.296-.48-.309-.33-.464-.79-.464-1.37v-10.16l1.472-.18v10.3c0 .24.038.41.112.52.086.1.224.16.416.16.203 0 .384-.04.544-.1l.384 1.02c-.352.2-.741.29-1.168.29Zm4.48-8.62v8.43h-1.472v-8.43h1.472Zm-.752-4.05c.309 0 .56.1.752.29a.97.97 0 0 1 .288.72.97.97 0 0 1-.288.72c-.192.18-.443.27-.752.27-.299 0-.544-.09-.736-.27a.97.97 0 0 1-.288-.72c0-.29.096-.53.288-.72.192-.19.437-.29.736-.29Zm7.651 3.86c.96 0 1.723.39 2.288 1.16.566.77.848 1.85.848 3.24 0 .87-.133 1.64-.4 2.32-.266.66-.65 1.17-1.152 1.55-.501.36-1.088.54-1.76.54-.885 0-1.632-.37-2.24-1.12l-.144.93h-1.296v-11.82l1.472-.18v4.62c.608-.83 1.403-1.24 2.384-1.24Zm-.528 7.64c.651 0 1.158-.26 1.52-.78.374-.53.56-1.35.56-2.46 0-1.15-.17-1.97-.512-2.47-.341-.51-.826-.77-1.456-.77-.746 0-1.402.44-1.968 1.32v4.03c.224.35.496.63.816.83.331.2.678.3 1.04.3Zm12.444.98h-1.264l-.112-1.31c-.32.52-.688.9-1.104 1.15-.416.23-.922.35-1.52.35-.736 0-1.312-.22-1.728-.67-.416-.45-.624-1.08-.624-1.9v-6.05h1.472v5.89c0 .57.102.98.304 1.23.203.23.534.35.992.35.822 0 1.526-.49 2.112-1.46v-6.01h1.472v8.43Zm3.425-2.03c.32 0 .587.1.8.32.213.21.32.47.32.78 0 .33-.096.71-.288 1.14l-1.072 2.45h-1.056l.64-2.66a1.251 1.251 0 0 1-.336-.4 1.244 1.244 0 0 1-.112-.53c0-.31.107-.57.32-.78.213-.22.475-.32.784-.32Zm11.63-9.19c.661 0 1.216.09 1.664.26.459.17.923.45 1.392.83l-.832.98c-.672-.55-1.381-.82-2.128-.82-.917 0-1.659.35-2.224 1.06-.555.7-.832 1.83-.832 3.39 0 1.51.277 2.63.832 3.36.555.71 1.291 1.07 2.208 1.07.469 0 .88-.08 1.232-.24a6.34 6.34 0 0 0 1.12-.67l.752.96c-.341.35-.779.65-1.312.88-.533.23-1.147.35-1.84.35-.896 0-1.696-.22-2.4-.65-.693-.45-1.237-1.1-1.632-1.96-.384-.86-.576-1.89-.576-3.1 0-1.21.203-2.23.608-3.09.405-.86.955-1.51 1.648-1.95a4.24 4.24 0 0 1 2.32-.66ZM554.3 1092l-.832-2.77h-4.176l-.832 2.77h-1.536l3.536-11.02h1.92l3.52 11.02h-1.6Zm-4.64-4h3.44l-1.712-5.76-1.728 5.76Zm47.718-242.216c.661 0 1.216.085 1.664.256.459.171.923.448 1.392.832l-.832.976c-.672-.544-1.381-.816-2.128-.816-.917 0-1.659.352-2.224 1.056-.555.704-.832 1.835-.832 3.392 0 1.515.277 2.635.832 3.36.555.715 1.291 1.072 2.208 1.072.469 0 .88-.08 1.232-.24.352-.16.725-.384 1.12-.672l.752.96c-.341.352-.779.645-1.312.88s-1.147.352-1.84.352c-.896 0-1.696-.219-2.4-.656-.693-.448-1.237-1.099-1.632-1.952-.384-.864-.576-1.899-.576-3.104s.203-2.235.608-3.088c.405-.864.955-1.515 1.648-1.952a4.262 4.262 0 0 1 2.32-.656ZM608.401 857h-1.264l-.112-1.312c-.32.523-.688.907-1.104 1.152-.416.235-.922.352-1.52.352-.736 0-1.312-.224-1.728-.672-.416-.448-.624-1.083-.624-1.904v-6.048h1.472v5.888c0 .576.102.987.304 1.232.203.235.534.352.992.352.822 0 1.526-.485 2.112-1.456v-6.016h1.472V857Zm6.705-8.624c.299 0 .576.032.832.096l-.272 1.44a3.032 3.032 0 0 0-.736-.096c-.523 0-.944.192-1.264.576-.32.384-.571.981-.752 1.792V857h-1.472v-8.432h1.264l.144 1.712c.224-.629.528-1.104.912-1.424.384-.32.832-.48 1.344-.48Zm6.172 0c.298 0 .576.032.832.096l-.272 1.44a3.038 3.038 0 0 0-.736-.096c-.523 0-.944.192-1.264.576-.32.384-.571.981-.752 1.792V857h-1.472v-8.432h1.264l.144 1.712c.224-.629.528-1.104.912-1.424.384-.32.832-.48 1.344-.48Zm8.391 4.16c0 .245-.01.496-.032.752h-5.376c.064.928.299 1.611.704 2.048.406.437.928.656 1.568.656a3.43 3.43 0 0 0 1.12-.176 4.486 4.486 0 0 0 1.072-.56l.64.88c-.896.704-1.877 1.056-2.944 1.056-1.173 0-2.09-.384-2.752-1.152-.65-.768-.976-1.824-.976-3.168 0-.875.139-1.648.416-2.32.288-.683.694-1.216 1.216-1.6.534-.384 1.158-.576 1.872-.576 1.12 0 1.979.368 2.576 1.104.598.736.896 1.755.896 3.056Zm-1.456-.432c0-.832-.165-1.467-.496-1.904-.33-.437-.826-.656-1.488-.656-1.205 0-1.861.885-1.968 2.656h3.952v-.096Zm7.775-3.728c.768 0 1.365.229 1.792.688.437.459.656 1.088.656 1.888V857h-1.472v-5.84c0-.597-.112-1.019-.336-1.264-.224-.245-.555-.368-.992-.368a1.92 1.92 0 0 0-1.184.384c-.341.256-.661.624-.96 1.104V857h-1.472v-8.432h1.264l.128 1.248c.299-.448.667-.8 1.104-1.056a2.916 2.916 0 0 1 1.472-.384Zm9.663 8.24a3.238 3.238 0 0 1-1.888.576c-.715 0-1.275-.203-1.68-.608-.395-.416-.592-1.013-.592-1.792v-5.088h-1.472v-1.136h1.472v-1.904l1.472-.176v2.08h2l-.16 1.136h-1.84v5.024c0 .437.075.757.224.96.16.192.421.288.784.288.331 0 .704-.112 1.12-.336l.56.976Zm7.36-10.64v9.696h4.528l-.176 1.328h-5.872v-11.024h1.52Zm9.13 2.4c1.184 0 2.101.395 2.752 1.184.661.789.992 1.861.992 3.216 0 .875-.149 1.648-.448 2.32-.299.661-.731 1.179-1.296 1.552-.565.363-1.237.544-2.016.544-1.184 0-2.107-.395-2.768-1.184-.661-.789-.992-1.861-.992-3.216 0-.875.149-1.643.448-2.304.299-.672.731-1.189 1.296-1.552.565-.373 1.243-.56 2.032-.56Zm0 1.184c-1.461 0-2.192 1.077-2.192 3.232 0 2.144.725 3.216 2.176 3.216s2.176-1.077 2.176-3.232c0-2.144-.72-3.216-2.16-3.216Zm9.248-1.184c.501 0 .96.075 1.376.224.416.139.816.368 1.2.688l-.704.928a3.365 3.365 0 0 0-.88-.464 2.56 2.56 0 0 0-.928-.16c-.683 0-1.216.272-1.6.816-.373.544-.56 1.349-.56 2.416s.187 1.856.56 2.368c.373.501.907.752 1.6.752.331 0 .635-.048.912-.144.277-.107.587-.272.928-.496l.672.96c-.768.619-1.627.928-2.576.928-1.141 0-2.043-.384-2.704-1.152-.651-.768-.976-1.829-.976-3.184 0-.896.149-1.68.448-2.352.299-.672.72-1.195 1.264-1.568.555-.373 1.211-.56 1.968-.56Zm10.092 6.656c0 .341.059.597.176.768a1.1 1.1 0 0 0 .528.368l-.336 1.024c-.437-.053-.789-.176-1.056-.368-.266-.192-.464-.491-.592-.896-.565.843-1.402 1.264-2.512 1.264-.832 0-1.488-.235-1.968-.704s-.72-1.083-.72-1.84c0-.896.32-1.584.96-2.064.651-.48 1.568-.72 2.752-.72h1.296v-.624c0-.597-.144-1.024-.432-1.28-.288-.256-.73-.384-1.328-.384-.618 0-1.376.149-2.272.448l-.368-1.072c1.046-.384 2.016-.576 2.912-.576.992 0 1.734.245 2.224.736.491.48.736 1.168.736 2.064v3.856Zm-3.456 1.056c.843 0 1.504-.437 1.984-1.312v-1.936h-1.104c-1.557 0-2.336.576-2.336 1.728 0 .501.123.88.368 1.136.246.256.608.384 1.088.384Zm10.735.528a3.236 3.236 0 0 1-1.888.576c-.714 0-1.274-.203-1.68-.608-.394-.416-.592-1.013-.592-1.792v-5.088h-1.472v-1.136h1.472v-1.904l1.472-.176v2.08h2l-.16 1.136h-1.84v5.024c0 .437.075.757.224.96.16.192.422.288.784.288.331 0 .704-.112 1.12-.336l.56.976Zm2.998-8.048V857h-1.472v-8.432h1.472Zm-.752-4.048c.309 0 .56.096.752.288a.977.977 0 0 1 .288.72.977.977 0 0 1-.288.72c-.192.181-.443.272-.752.272-.299 0-.544-.091-.736-.272a.977.977 0 0 1-.288-.72c0-.288.096-.528.288-.72a.996.996 0 0 1 .736-.288Zm6.963 3.856c1.184 0 2.102.395 2.752 1.184.662.789.992 1.861.992 3.216 0 .875-.149 1.648-.448 2.32-.298.661-.73 1.179-1.296 1.552-.565.363-1.237.544-2.016.544-1.184 0-2.106-.395-2.768-1.184-.661-.789-.992-1.861-.992-3.216 0-.875.15-1.643.448-2.304.299-.672.731-1.189 1.296-1.552.566-.373 1.243-.56 2.032-.56Zm0 1.184c-1.461 0-2.192 1.077-2.192 3.232 0 2.144.726 3.216 2.176 3.216 1.451 0 2.176-1.077 2.176-3.232 0-2.144-.72-3.216-2.16-3.216Zm10.144-1.184c.768 0 1.365.229 1.792.688.437.459.656 1.088.656 1.888V857h-1.472v-5.84c0-.597-.112-1.019-.336-1.264-.224-.245-.555-.368-.992-.368a1.92 1.92 0 0 0-1.184.384c-.341.256-.661.624-.96 1.104V857h-1.472v-8.432h1.264l.128 1.248c.299-.448.667-.8 1.104-1.056a2.916 2.916 0 0 1 1.472-.384Z"/></symbol><symbol viewBox="0 0 11 14" id="marker" xmlns="http://www.w3.org/2000/svg"><path fill-rule="evenodd" clip-rule="evenodd" d="M5.434.295c1.225 0 2.415.414 3.352 1.165a5.358 5.358 0 0 1 2.034 3.926 5.401 5.401 0 0 1-1.57 4.109l-3.58 3.534a.377.377 0 0 1-.519 0l-3.53-3.532A5.4 5.4 0 0 1 .049 5.386 5.358 5.358 0 0 1 2.081 1.46 5.371 5.371 0 0 1 5.434.295Zm-2.407 5.39A2.409 2.409 0 0 0 5.434 8.09 2.408 2.408 0 0 0 7.84 5.684a2.409 2.409 0 0 0-2.406-2.406 2.409 2.409 0 0 0-2.407 2.406Z"/></symbol><symbol viewBox="0 0 24 24" id="search" xmlns="http://www.w3.org/2000/svg"><path fill-rule="evenodd" clip-rule="evenodd" d="M23.33 23.33a2.285 2.285 0 0 0 0-3.232l-4.716-4.716c-.335-.335-.422-.944-.197-1.36 0 0-.015.063.15-.301a9.68 9.68 0 0 0 .862-4.007A9.713 9.713 0 0 0 9.714 0 9.713 9.713 0 0 0 0 9.714a9.713 9.713 0 0 0 9.714 9.715 9.669 9.669 0 0 0 3.996-.857c.368-.166.31-.152.31-.152.422-.226 1.027-.141 1.362.194l4.716 4.716c.893.893 2.34.893 3.232 0ZM15.143 9.714a5.429 5.429 0 1 1-10.858 0 5.429 5.429 0 0 1 10.858 0Z"/></symbol><symbol viewBox="0 0 61 48" id="surf" xmlns="http://www.w3.org/2000/svg"><path fill-rule="evenodd" clip-rule="evenodd" d="M59.598 43.861a.52.52 0 0 1-.036.083.172.172 0 0 1-.056.073.95.95 0 0 1-.033.048l-.016.024c-.019.023-.04.05-.061.073a1.282 1.282 0 0 1-.17.144 2.174 2.174 0 0 1-.056.033l-.014.008a.716.716 0 0 1-.157.07.334.334 0 0 1-.038.013c-.005.002-.01.002-.013.002h-.013a.893.893 0 0 1-.226.032c-.106 0-.143.016-.143.016-.044.05-.122.304-.172.464l-.005.016c-.183.593-.567 1.827-2.116 1.827-1.326 0-1.984-.888-2.466-1.538l-.004-.005c-.451-.614-.623-.78-.961-.78-.34 0-.508.166-.962.778l-.004.005c-.481.65-1.14 1.538-2.468 1.538-1.326 0-1.984-.889-2.466-1.538l-.003-.005c-.452-.612-.624-.778-.962-.778-.337 0-.508.166-.962.78-.48.65-1.14 1.543-2.47 1.543-1.328 0-1.986-.888-2.468-1.538l-.003-.005c-.452-.612-.623-.778-.962-.778-.339 0-.508.166-.962.778-.48.65-1.138 1.543-2.47 1.543-1.325 0-1.983-.888-2.465-1.538l-.004-.005c-.451-.612-.623-.778-.962-.778-.336 0-.507.166-.961.78-.48.651-1.14 1.543-2.47 1.543-1.325 0-1.984-.888-2.466-1.538l-.003-.004c-.452-.612-.623-.779-.962-.779-.336 0-.508.167-.962.781-.48.65-1.14 1.543-2.47 1.543a1.4 1.4 0 0 1-1.074-.487c-.656-.754-.524-2.04-.254-4.077l.005-.035c.096-.737.244-1.86.195-2.407-1.757.346-4.25 3.9-5.543 6.484a.937.937 0 0 1-.84.522c-.018 0-.037 0-.056-.002a.937.937 0 0 1-.828-.622c-.216-.603-2.065-5.974-.143-8.945.72-1.11 1.886-1.75 3.377-1.847 1.296-.085 1.888-.436 2.001-.714.075-.185-.045-.5-.308-.802-.7-.805-2.267-1.45-4.05-.961-2.471.674-5.242 4.018-6.175 7.454-.327 1.208-.68 3.444.656 4.828a.957.957 0 0 1-.019 1.343.934.934 0 0 1-1.331-.02c-1.475-1.525-1.872-3.889-1.122-6.651.971-3.58 4.043-7.844 7.5-8.786 2.575-.703 4.844.266 5.954 1.54.77.88 1 1.894.635 2.782-.317.771-1.201 1.725-3.619 1.884-.9.06-1.529.384-1.921.99-.793 1.224-.61 3.396-.25 5.128 1.412-2.285 3.888-5.605 6.451-5.525.414.015.788.195 1.051.51.264.314.393.72.44 1.223 1.731-1.156 4.257-2.3 9.243-2.808-5.405-22.095 4.755-34.533 5.216-35.081l.011-.01a.384.384 0 0 1 .16-.147c.03-.02.058-.035.089-.052l.02-.012a.475.475 0 0 1 .059-.033.917.917 0 0 1 .136-.045l.033-.009a.9.9 0 0 1 .214-.027l.139.005c.277 0 .538.121.717.335.46.545 10.57 12.92 5.263 34.908 13.88.82 15.578 6.41 15.643 6.654.003.01.003.022.005.031l.014.093c.005.033.01.066.01.1a.08.08 0 0 0 0 .006v.008l.002.007v.007a.275.275 0 0 1-.004.049v.009a.718.718 0 0 1-.02.138l-.011.046-.005.017-.003.011a.563.563 0 0 1-.02.062Zm-20.79-4.314h2.432c5.355-17.673.317-29.587-2.432-34.317v34.317ZM36.927 5.479v34.068h-2.293c-5.252-17.33-.478-29.168 2.293-34.068ZM56.599 44.42l.005-.015c.11-.356.298-.94.761-1.35-1.041-1.33-4.327-4.059-13.863-4.555-.207.752-.43 1.514-.675 2.288a.943.943 0 0 1-.896.662H33.94a.943.943 0 0 1-.896-.662 70.894 70.894 0 0 1-.628-2.131c-6.046.574-8.21 2.105-9.863 3.396l-.022.166c-.01.087-.022.175-.035.268-.091.693-.232 1.76-.204 2.33.171-.102.345-.31.628-.695l.003-.004c.482-.65 1.14-1.538 2.468-1.538 1.326 0 1.985.888 2.466 1.538l.004.004c.451.612.623.779.962.779.338 0 .508-.167.961-.779l.004-.004c.482-.65 1.14-1.538 2.468-1.538 1.326 0 1.984.888 2.466 1.538l.003.004c.454.612.626.779.962.779.339 0 .508-.167.962-.779.48-.65 1.139-1.542 2.47-1.542 1.325 0 1.984.888 2.465 1.538l.004.004c.454.615.625.781.964.781.339 0 .508-.166.962-.778l.003-.005c.482-.65 1.14-1.538 2.469-1.538 1.325 0 1.984.888 2.466 1.538l.003.005c.452.612.623.778.962.778.338 0 .51-.166.964-.78.48-.651 1.14-1.543 2.47-1.543 1.327 0 1.986.888 2.468 1.538l.003.004c.454.612.626.779.962.779.106 0 .143-.017.143-.017.044-.05.122-.304.172-.464Z"/><path d="m59.562 43.944-.44-.238.758.624-.318-.386Zm.036-.083-.463-.19-.006.016-.006.017.475.157Zm-.035.083.448.222-.766-.608.318.386Zm-.057.073-.279-.414-.087.058-.057.09.423.266Zm-.033.048.407.292-.407-.292Zm-.016.024.392.31.01-.012.009-.013-.411-.285Zm-.061.073.355.352.01-.01.008-.009-.373-.333Zm-.059.057-.334-.372-.01.01-.011.01.355.352Zm-.075.064.279.415.008-.006.009-.006-.296-.403Zm-.035.023-.27-.421.27.421Zm-.036.022.225.447.018-.009.016-.01-.259-.428Zm-.02.011-.242-.438.241.438Zm-.015.008-.244-.436.244.436Zm-.05.026-.21-.453-.008.003-.007.004.225.446Zm-.029.013-.186-.464.186.464Zm-.033.013-.171-.47.171.47Zm-.027.01.177.468.004-.002-.18-.466Zm-.018.008.2.458-.2-.458Zm-.018.007.18.467-.18-.467Zm-.02.006-.11-.488-.013.004.123.484Zm-.014.002v-.5h-.002l.002.5Zm-.012 0-.122-.484h-.004l.126.485Zm-.37.048-.201-.457-.104.046-.074.086.38.325Zm-.171.464.477.149-.477-.149Zm-.005.016-.477-.149.477.149Zm-4.582.289-.402.297.402-.297Zm-.004-.005-.403.296.002.002.401-.298Zm-1.923-.002.401.298-.401-.298Zm-.004.005-.401-.298.401.297Zm-4.934 0 .402-.298-.402.297Zm-.003-.005-.403.297h.001l.402-.297Zm-1.924.002-.402-.297.402.297Zm-4.938.005.402-.298-.402.298Zm-.003-.005-.403.297.001.001.402-.298Zm-1.924 0-.402-.297.402.297Zm-4.935.005.401-.298-.401.298Zm-.004-.005-.402.297v.001l.402-.298Zm-1.923.003-.403-.297.403.297Zm-4.936.004.402-.297-.402.297Zm-.003-.004-.402.297.402-.297Zm-1.924.002-.402-.297.402.297Zm-3.544 1.056.379-.326-.002-.002-.377.328Zm-.254-4.077.496.066-.496-.066Zm.005-.035-.496-.065.496.065Zm.195-2.407.498-.044-.05-.554-.545.107.097.491Zm-5.543 6.484-.447-.224-.001.002.448.222Zm-.896.52.063-.496-.017-.003h-.017l-.029.499Zm-.828-.622.471-.168v-.001l-.47.169Zm-.143-8.945-.42-.272.42.272Zm3.377-1.847.032.5-.032-.5Zm2.001-.714.463.188-.463-.188Zm-.308-.802-.377.328.377-.328Zm-4.05-.961.132.482-.132-.482Zm-6.175 7.454-.483-.13.483.13Zm.656 4.828.36-.347-.36.347Zm-.019 1.343.35.357-.35-.357Zm-1.331-.02.36-.346-.36.347Zm-1.122-6.651.483.13-.483-.13Zm7.5-8.786.131.482-.131-.482Zm5.954 1.54-.377.329.377-.329Zm.635 2.782.463.19-.463-.19Zm-3.619 1.884-.033-.499.033.5Zm-1.921.99-.42-.273v.001l.42.272Zm-.25 5.128-.49.102.256 1.23.66-1.069-.426-.263Zm6.451-5.525.017-.5h-.001l-.016.5Zm1.051.51-.383.32v.002l.383-.321Zm.44 1.223-.498.046.078.835.698-.465-.278-.416Zm9.243-2.808.05.498.572-.059-.136-.558-.486.12ZM37.146 1.71l-.355-.352-.015.015-.013.015.383.322Zm.011-.01.313.39-.313-.39Zm.015-.014-.37-.337-.016.019-.016.02.402.298Zm.087-.083.325.38.015-.013.015-.015-.355-.352Zm.059-.05-.28-.414.28.414Zm.088-.052.245.435-.245-.435Zm.02-.012.245.436.011-.006.01-.007-.266-.423Zm.059-.033-.196-.46L37.28 1l.205.456Zm.136-.045L37.55.916l-.026.004-.025.006.122.485Zm.033-.009.16.474.004-.002-.164-.472Zm0 0-.16-.474-.004.002.164.472Zm.016-.005-.11-.488-.014.003-.014.004.138.48Zm.198-.022.017-.5h-.017v.5Zm.139.005-.017.5h.017v-.5Zm.717.335-.383.32.001.002.382-.322Zm5.263 34.908-.486-.117-.14.58.597.036.03-.5Zm15.643 6.654.486-.12-.003-.01-.483.13Zm.005.031.495-.075-.004-.023-.005-.022-.486.12Zm.014.093.495-.07v-.006l-.495.076Zm.01.106-.498.046.001.01.497-.056Zm0 .008-.496.056v.005l.497-.061Zm.002.007.498-.043-.498.043Zm0 .025-.5-.036.5.036Zm-.004.03-.496-.061.496.062Zm0 .007-.497-.063-.001.014-.001.013.498.035Zm0 .003-.5-.035.5.035Zm-.012.098-.49-.103-.002.01-.002.012.494.081Zm-.004.022.49.099-.49-.099Zm-.004.018-.488-.11v.001l.488.11Zm-.011.046.48.141.002-.01.003-.01-.485-.121Zm-.005.017-.48-.142-.001.005.481.136Zm-.003.011-.481-.136.48.136ZM41.24 39.547v.5h.37l.108-.355-.478-.145Zm-2.432 0h-.5v.5h.5v-.5Zm0-34.317.432-.252-.932-1.604V5.23h.5Zm-1.881 34.317v.5h.5v-.5h-.5Zm0-34.068h.5v-1.9l-.935 1.654.435.246Zm-2.293 34.068-.479.145.108.355h.37v-.5Zm21.97 4.858.477.148.232-.746-.774.102.065.496Zm-.005.015.478.148-.478-.148Zm.004-.015-.477-.149-.232.746.774-.102-.065-.495Zm.762-1.35.332.373.352-.312-.29-.37-.394.308ZM43.502 38.5l.026-.5-.402-.02-.106.387.482.133Zm-.675 2.288.477.15-.477-.15Zm-9.783 0-.477.15.477-.15Zm-.628-2.131.482-.135-.113-.403-.416.04.047.498Zm-9.863 3.396-.308-.394-.161.126-.027.202.496.066Zm-.022.166.497.063-.497-.063Zm-.035.268-.495-.069v.003l.495.066Zm-.204 2.33-.5.025.041.83.714-.425-.255-.43Zm.628-.695-.402-.297-.001.001.403.296Zm.003-.004-.402-.298.402.298Zm4.934 0-.401.297.401-.297Zm.004.004.402-.297-.402.297Zm1.923 0 .402.298-.402-.298Zm.004-.004-.402-.298.402.298Zm4.934 0-.402.297.402-.297Zm.003.004.402-.298-.402.298Zm1.924 0 .402.298v-.001l-.402-.297Zm4.935-.004.402-.298-.401.298Zm.004.004.402-.297-.402.297Zm1.926.003-.402-.298.402.298Zm.003-.005-.401-.298.401.298Zm4.935 0-.402.298.402-.298Zm.003.005.402-.297v-.001l-.402.298Zm1.926-.003.402.297-.402-.297Zm4.938-.004-.402.297.402-.297Zm.003.004.402-.298-.402.298Zm1.105.762.202.457.104-.046.074-.086-.38-.325Zm3.575-.702c.03-.057.053-.113.07-.164l-.95-.314a.05.05 0 0 1-.001.005l.001-.003.88.476Zm-.757-.624.635.772-.635-.772Zm.54.874c.148-.1.21-.236.226-.266l-.896-.444c-.014.027.02-.058.112-.12l.558.83Zm.095-.075c.01-.014.03-.041.05-.073l-.847-.533a.501.501 0 0 1-.016.023l.813.583Zm-.012.017.012-.017-.813-.583a3.188 3.188 0 0 0-.02.03l.82.57Zm-.099.121c.03-.035.06-.07.08-.096l-.784-.621a1.144 1.144 0 0 1-.042.051l.746.666Zm-.098.096c.034-.03.062-.06.08-.077l-.71-.704-.038.037.668.744Zm-.113.095c.04-.03.088-.068.134-.115l-.71-.704-.004.004a.211.211 0 0 1-.012.01l.592.805Zm-.062.042.045-.03-.558-.83-.026.017.539.843Zm-.046.028.046-.029-.539-.842a1.18 1.18 0 0 1-.025.016l.518.855Zm-.039.022.005-.003-.45-.893a1.198 1.198 0 0 0-.037.02l.482.876Zm-.01.006.01-.007-.482-.876-.017.01.488.873Zm-.083.043c.037-.018.069-.036.082-.043l-.488-.873a.701.701 0 0 1-.016.009c-.002.001-.002.001 0 0l.422.907Zm-.055.023a.877.877 0 0 0 .069-.03l-.45-.893.01-.005.371.928Zm-.047.018.048-.018-.373-.928a.62.62 0 0 1-.018.007l.343.94Zm-.018.007.018-.007-.343-.939-.037.014.362.932Zm.002 0 .003-.002-.009.004-.354-.936-.042.018.402.915Zm-.039.016.039-.016-.402-.916-.003.001.007-.003.359.934Zm-.09.027a.648.648 0 0 0 .09-.027l-.359-.934a.337.337 0 0 1 .05-.014l.218.975Zm-.123.014s.063.001.135-.017l-.245-.97c.063-.015.117-.014.11-.014v1Zm-.002 0h.002v-1h-.002v1Zm.11-.014c-.056.014-.103.014-.108.014l-.003-1c-.013 0-.067 0-.132.016l.244.97Zm-.347.046c.129 0 .247-.02.352-.047l-.252-.968a.396.396 0 0 1-.1.015v1Zm-.143-.484.201.458h-.001l-.002.001-.004.002-.007.003a1.573 1.573 0 0 1-.036.012.284.284 0 0 1-.03.008c-.01.002-.005 0 .022 0v-1a1.116 1.116 0 0 0-.28.035.627.627 0 0 0-.05.017l-.008.004-.004.001-.001.001h-.001l.2.458Zm.306.612a8.186 8.186 0 0 1 .115-.344l.003-.006a.4.4 0 0 1-.044.063l-.76-.65c-.068.079-.106.172-.118.2a4.672 4.672 0 0 0-.151.441l.955.296Zm-.005.016.005-.015-.956-.297-.004.015.955.297Zm-2.594 2.179c.932 0 1.555-.382 1.958-.875.381-.467.546-1.014.636-1.305l-.955-.295c-.094.302-.213.67-.456.968-.222.272-.566.507-1.183.507v1Zm-2.868-1.74c.474.639 1.268 1.74 2.868 1.74v-1c-1.052 0-1.575-.675-2.065-1.336l-.803.596Zm-.003-.005.003.005.804-.596-.004-.004-.803.595Zm-.56-.578c.042 0 .057.005.062.006a.19.19 0 0 1 .056.037c.087.073.209.218.44.533l.806-.592c-.22-.299-.41-.545-.605-.708a1.122 1.122 0 0 0-.76-.276v1Zm-.56.576c.233-.315.354-.46.442-.533a.193.193 0 0 1 .056-.037.183.183 0 0 1 .062-.006v-1c-.283 0-.524.08-.759.275-.195.163-.385.408-.605.705l.803.596Zm-.004.004.003-.004-.803-.596-.003.005.803.595Zm-2.87 1.74c1.602 0 2.396-1.1 2.87-1.74l-.803-.595c-.49.66-1.013 1.336-2.067 1.336v1Zm-2.868-1.74c.474.64 1.268 1.74 2.868 1.74v-1c-1.051 0-1.575-.675-2.064-1.335l-.804.595Zm-.003-.004.004.004.803-.595-.004-.005-.803.596Zm-.56-.576c.042 0 .057.005.062.006a.195.195 0 0 1 .056.037c.088.073.21.217.441.532l.805-.594c-.22-.298-.41-.543-.606-.706a1.123 1.123 0 0 0-.758-.275v1Zm-.56.577c.233-.315.355-.46.444-.534a.197.197 0 0 1 .056-.037.166.166 0 0 1 .06-.006v-1c-.282 0-.523.08-.758.276-.195.163-.386.408-.606.707l.804.594Zm-2.872 1.746c1.604 0 2.4-1.106 2.872-1.746l-.805-.593c-.487.66-1.013 1.339-2.067 1.339v1Zm-2.87-1.74c.475.64 1.268 1.74 2.87 1.74v-1c-1.053 0-1.577-.676-2.066-1.336l-.803.596Zm-.003-.005.004.005.803-.596-.004-.004-.803.595Zm-.56-.576a.19.19 0 0 1 .062.007.195.195 0 0 1 .056.037c.088.073.21.217.441.531l.805-.593c-.22-.298-.41-.543-.605-.707a1.123 1.123 0 0 0-.759-.275v1Zm-.56.576c.233-.315.355-.46.443-.533a.191.191 0 0 1 .055-.037.185.185 0 0 1 .062-.006v-1c-.282 0-.524.08-.758.276-.195.163-.385.407-.606.705l.804.595Zm-2.871 1.745c1.606 0 2.4-1.106 2.871-1.746l-.804-.593c-.488.66-1.011 1.339-2.067 1.339v1Zm-2.868-1.74c.474.639 1.268 1.74 2.868 1.74v-1c-1.051 0-1.575-.675-2.064-1.336l-.804.596Zm-.003-.005.003.005.803-.596-.003-.005-.803.596Zm-.56-.576c.042 0 .057.005.062.007a.193.193 0 0 1 .056.037c.088.073.21.217.441.531l.805-.593c-.22-.298-.41-.543-.606-.707a1.123 1.123 0 0 0-.759-.275v1Zm-.56.578c.233-.316.355-.46.443-.534a.194.194 0 0 1 .056-.038.178.178 0 0 1 .06-.006v-1c-.281 0-.523.08-.757.276-.195.163-.386.409-.607.708l.805.594Zm-2.872 1.745c1.604 0 2.4-1.105 2.872-1.745l-.805-.594c-.487.66-1.013 1.34-2.067 1.34v1Zm-2.867-1.74c.474.64 1.267 1.74 2.867 1.74v-1c-1.05 0-1.574-.675-2.064-1.335l-.803.595Zm-.004-.004.004.004.803-.596-.003-.004-.804.596Zm-.56-.577c.043 0 .058.005.062.007a.191.191 0 0 1 .057.037c.087.073.209.217.44.532l.805-.594c-.22-.298-.41-.543-.605-.706a1.123 1.123 0 0 0-.759-.276v1Zm-.56.578c.233-.315.356-.46.444-.534a.197.197 0 0 1 .056-.037.178.178 0 0 1 .06-.007v-1c-.282 0-.523.08-.757.277-.196.163-.386.408-.607.707l.805.594Zm-2.871 1.746c1.603 0 2.4-1.106 2.872-1.746l-.805-.594c-.487.66-1.013 1.34-2.067 1.34v1Zm-1.453-.66a1.9 1.9 0 0 0 1.453.66v-1a.9.9 0 0 1-.696-.313l-.757.653Zm-.372-4.47c-.134 1.01-.24 1.88-.224 2.597.016.72.158 1.37.597 1.874l.755-.656c-.217-.25-.338-.62-.352-1.241-.015-.625.08-1.415.216-2.442l-.992-.132Zm.005-.034-.005.035.992.13.005-.035-.992-.13Zm.193-2.298c.02.222 0 .597-.043 1.04a38.5 38.5 0 0 1-.15 1.258l.992.13c.048-.367.11-.84.154-1.292.042-.44.072-.9.043-1.224l-.996.088Zm-4.598 6.664c.633-1.265 1.561-2.77 2.541-3.993.49-.612.984-1.143 1.452-1.537.477-.402.884-.625 1.2-.687l-.194-.982c-.562.111-1.125.462-1.65.904-.535.45-1.074 1.035-1.588 1.677a24.703 24.703 0 0 0-2.655 4.17l.894.448Zm-1.287.798c.542 0 1.043-.306 1.288-.8l-.896-.444a.437.437 0 0 1-.392.244v1Zm-.119-.006c.056.007.106.006.12.006v-1h-.014l.019.002-.126.992Zm-1.236-.95c.195.544.695.92 1.27.953l.058-.999a.437.437 0 0 1-.386-.29l-.942.336Zm-.092-9.385c-1.064 1.646-1.057 3.889-.805 5.701.255 1.839.784 3.369.898 3.685l.94-.338a18.719 18.719 0 0 1-.848-3.485c-.246-1.766-.203-3.694.655-5.02l-.84-.543Zm3.764-2.074c-1.625.107-2.946.812-3.764 2.074l.84.544c.621-.96 1.633-1.531 2.99-1.62l-.066-.998Zm1.571-.403c.02-.051.002.038-.284.155-.26.107-.675.208-1.287.248l.066.998c.684-.045 1.212-.161 1.601-.321.363-.15.697-.375.83-.704l-.926-.376Zm-.221-.285c.102.117.162.221.19.294a.238.238 0 0 1 .016.058c0 .002-.002-.025.015-.067l.926.376c.107-.262.05-.532-.023-.724a2.032 2.032 0 0 0-.371-.595l-.753.658Zm-3.541-.808c1.608-.441 2.973.156 3.54.807l.754-.657c-.834-.957-2.602-1.651-4.559-1.114l.265.964Zm-5.826 7.103c.447-1.642 1.336-3.274 2.414-4.575 1.085-1.31 2.314-2.229 3.411-2.528l-.263-.965c-1.375.376-2.767 1.466-3.918 2.855-1.16 1.4-2.121 3.157-2.609 4.951l.965.262Zm.534 4.35c-.554-.574-.777-1.343-.812-2.154-.035-.812.122-1.617.278-2.196l-.965-.261c-.17.63-.353 1.546-.312 2.5.04.954.309 1.995 1.091 2.805l.72-.695ZM9.25 46.88c.566-.557.58-1.47.029-2.046l-.722.693a.457.457 0 0 1-.009.64l.702.713Zm-2.042-.028a1.434 1.434 0 0 0 2.04.03l-.698-.716a.434.434 0 0 1-.622-.008l-.72.694Zm-1.244-7.13c-.778 2.865-.394 5.435 1.244 7.13l.72-.695c-1.31-1.356-1.722-3.513-1-6.173l-.964-.262Zm7.85-9.137c-1.867.509-3.582 1.896-4.939 3.571-1.362 1.682-2.406 3.704-2.911 5.566l.965.262c.466-1.718 1.442-3.617 2.723-5.198 1.286-1.587 2.836-2.803 4.425-3.237l-.263-.964Zm6.463 1.694c-1.235-1.418-3.701-2.448-6.463-1.694l.263.964c2.389-.651 4.461.256 5.446 1.387l.754-.657Zm.72 3.3c.454-1.105.141-2.315-.72-3.3l-.753.657c.677.775.824 1.592.549 2.263l.925.38Zm-4.048 2.193c1.268-.083 2.18-.378 2.83-.788.657-.414 1.023-.93 1.219-1.405l-.925-.38c-.122.295-.357.643-.826.939-.475.299-1.215.56-2.364.636l.066.998Zm-1.535.763c.286-.44.749-.711 1.535-.763l-.066-.998c-1.015.067-1.808.447-2.308 1.216l.84.545Zm-.18 4.755c-.175-.846-.304-1.785-.296-2.649.008-.877.156-1.612.476-2.107l-.84-.543c-.472.73-.627 1.693-.636 2.641-.009.96.134 1.974.318 2.861l.979-.203Zm5.978-5.923c-1.496-.047-2.886.89-4.025 2.02-1.157 1.145-2.153 2.585-2.867 3.742l.85.525c.698-1.13 1.646-2.492 2.72-3.557 1.093-1.082 2.223-1.764 3.29-1.73l.032-1Zm1.42.69a1.915 1.915 0 0 0-1.419-.69l-.034.999c.274.01.514.127.685.33l.767-.64Zm.553 1.495c-.052-.559-.202-1.077-.555-1.497l-.765.643c.173.207.283.5.324.947l.996-.093Zm8.694-3.258c-5.052.514-7.66 1.68-9.47 2.889l.556.832c1.651-1.103 4.096-2.225 9.015-2.726l-.1-.995Zm4.884-34.906c-.52.619-10.775 13.217-5.319 35.522l.972-.238c-5.353-21.884 4.711-34.163 5.113-34.64l-.766-.644Zm.083-.079c-.002.002-.028.022-.055.049l.71.704a.436.436 0 0 1-.025.023l-.007.006-.623-.782Zm-.075.079a.45.45 0 0 1 .056-.063l.019-.016.623.782a.599.599 0 0 0 .104-.106l-.803-.597Zm.163-.165a1.49 1.49 0 0 0-.131.126l.738.675a.477.477 0 0 1 .043-.04l-.65-.761Zm.105-.084a.888.888 0 0 0-.135.112l.71.704c.004-.004-.002.003-.017.013l-.559-.83Zm.121-.074c-.027.016-.073.041-.121.074l.558.83a.827.827 0 0 1 .054-.033l-.49-.871Zm.02-.011-.02.011.491.871.02-.011-.491-.871Zm.1-.054c-.059.026-.106.057-.121.066l.534.846a.729.729 0 0 1 .013-.008l-.017.008L37.28 1Zm.219-.074a1.416 1.416 0 0 0-.21.07l.391.92a.423.423 0 0 1 .063-.02L37.5.926Zm-.005.002c-.007.003-.002 0 .005-.001a.378.378 0 0 1 .05-.01l.143.989c.064-.01.12-.03.121-.03l-.319-.948ZM37.49.93l.328.944L37.49.93Zm.042-.014-.037.012.318.948.003-.001-.007.002-.277-.96Zm.336-.04a1.4 1.4 0 0 0-.307.033l.219.976a.4.4 0 0 1 .088-.01v-1Zm.156.004-.139-.004-.034 1 .139.004.034-1Zm1.083.514a1.432 1.432 0 0 0-1.1-.514v1c.13 0 .25.056.334.156l.766-.642Zm5.366 35.346c5.359-22.197-4.846-34.731-5.367-35.348l-.764.645c.4.475 10.416 12.69 5.159 34.468l.972.235Zm15.64 6.407c-.06-.223-.564-1.785-2.836-3.39-2.265-1.599-6.258-3.22-13.26-3.633l-.06.998c6.878.407 10.674 1.991 12.744 3.453 2.063 1.456 2.441 2.811 2.447 2.832l.965-.26Zm.008.041c.005.02.007.036.008.043v.007c.001.001.001.002 0 0v-.008l-.002-.015a.586.586 0 0 0-.011-.058l-.97.24a.439.439 0 0 1-.01-.042v-.008s0-.001 0 0v.008l.003.016a.531.531 0 0 0 .01.057l.972-.24Zm.023.137-.014-.092-.99.15.015.093.989-.15Zm.015.175c0-.074-.01-.142-.015-.17l-.99.14.003.021.002.012V43.5h1Zm-.002-.038a.42.42 0 0 1 .002.038h-1l.002.053.996-.09Zm0-.004-.001-.007-.994.113.001.007.994-.113Zm.002.02a.514.514 0 0 0-.003-.025l-.992.123c0 .002 0 0 0 0l-.001-.01.996-.087Zm.002.05a.578.578 0 0 0-.002-.05l-.996.088a.396.396 0 0 1-.002-.037h1Zm-.002.056a.787.787 0 0 0 .002-.055h-1v-.018l.998.072Zm-.006.056.006-.056-.997-.073v-.004l-.001.009.992.124Zm0 .005v-.005l-.992-.124v.006l.992.123Zm.002-.023v-.003l-.997-.07v.003l.997.07Zm-.021.167a.958.958 0 0 0 .02-.167l-.997-.07-.001.02-.001.012v-.002l.979.207Zm-.003.017a1.13 1.13 0 0 0 .007-.039l-.987-.163v.005l.98.197Zm-.006.029.006-.03-.98-.197-.002.008.976.219Zm-.014.056.014-.056-.976-.219a1.83 1.83 0 0 1-.008.035l.97.24Zm-.01.038.005-.017-.96-.282-.005.016.96.282Zm-.002.006.003-.011-.962-.273-.003.012.962.272Zm-.04.117c.022-.052.035-.101.04-.117l-.963-.271a1.11 1.11 0 0 0-.005.017l.004-.01.925.381Zm-18.82-5.005h-2.43v1h2.43v-1ZM38.377 5.48c2.696 4.639 7.691 16.41 2.385 33.92l.957.29c5.404-17.834.324-29.892-2.478-34.713l-.864.503Zm.932 34.066V5.23h-1v34.317h1Zm-1.881 0V5.479h-1v34.068h1Zm-2.793.5h2.293v-1h-2.293v1Zm1.858-34.814c-2.822 4.99-7.636 16.97-2.337 34.459l.957-.29c-5.203-17.17-.47-28.867 2.25-33.677l-.87-.492Zm19.634 39.023-.005.016.956.296.004-.015-.955-.297Zm.542.644-.13-.991.13.991Zm.365-2.22c-.579.514-.799 1.226-.907 1.576l.955.297c.112-.362.268-.817.616-1.124l-.664-.749ZM43.476 39c9.453.491 12.575 3.188 13.495 4.363l.788-.617C56.596 41.262 53.147 38.5 43.528 38l-.052.998Zm-.172 1.938c.246-.78.471-1.547.68-2.305l-.964-.266a62.615 62.615 0 0 1-.67 2.27l.954.301ZM41.93 41.95c.63 0 1.183-.413 1.373-1.011l-.954-.302a.443.443 0 0 1-.42.313v1Zm-7.991 0h7.99v-1h-7.99v1Zm-1.373-1.011c.19.598.742 1.01 1.373 1.01v-1a.442.442 0 0 1-.42-.312l-.953.302Zm-.633-2.148c.197.704.405 1.419.633 2.146l.954-.298c-.224-.716-.43-1.42-.623-2.117l-.964.269Zm-9.074 3.656c.813-.635 1.725-1.308 3.166-1.898 1.447-.593 3.45-1.11 6.437-1.395l-.094-.995c-3.059.29-5.162.825-6.722 1.464-1.565.642-2.561 1.38-3.402 2.036l.615.788Zm.168-.165.02-.164-.99-.13c-.009.056-.016.113-.023.168l.992.126Zm-.036.274.035-.274-.992-.126a21.21 21.21 0 0 1-.034.262l.99.138Zm-.2 2.237c-.026-.513.105-1.524.2-2.24L22 42.421c-.089.67-.24 1.795-.209 2.421l1-.05Zm-.275-.967c-.298.406-.413.521-.48.562l.51.86c.276-.164.509-.466.776-.83l-.806-.592Zm.004-.006-.003.005.803.595.004-.005-.804-.595Zm2.87-1.74c-1.602 0-2.395 1.1-2.87 1.74l.804.595c.49-.66 1.013-1.335 2.066-1.335v-1Zm2.868 1.74c-.474-.64-1.268-1.74-2.868-1.74v1c1.052 0 1.575.675 2.065 1.335l.803-.595Zm.003.004-.003-.004-.803.596.003.004.803-.596Zm.56.577a.187.187 0 0 1-.062-.007.195.195 0 0 1-.056-.037c-.088-.073-.21-.217-.44-.532l-.806.594c.22.298.41.543.606.706.235.196.477.276.759.276v-1Zm.56-.577c-.233.315-.354.46-.442.533a.19.19 0 0 1-.056.037.182.182 0 0 1-.061.007v1c.282 0 .523-.08.758-.276.195-.163.385-.408.605-.705l-.803-.596Zm.004-.004-.003.005.803.595.003-.005-.803-.595Zm2.87-1.74c-1.602 0-2.396 1.1-2.87 1.74l.803.595c.49-.66 1.013-1.335 2.067-1.335v-1Zm2.868 1.74c-.474-.64-1.268-1.74-2.868-1.74v1c1.051 0 1.575.675 2.064 1.335l.804-.595Zm.003.004-.003-.004-.804.596.004.004.803-.596Zm.56.577a.178.178 0 0 1-.06-.007.195.195 0 0 1-.056-.037c-.088-.074-.21-.218-.444-.533l-.803.596c.22.298.411.542.606.705.234.195.476.276.757.276v-1Zm.56-.577c-.233.315-.355.46-.442.533a.192.192 0 0 1-.056.037.183.183 0 0 1-.062.007v1c.283 0 .524-.08.759-.276.195-.163.385-.408.605-.705l-.803-.596Zm2.871-1.744c-1.605 0-2.399 1.105-2.871 1.745l.804.594c.488-.66 1.011-1.34 2.067-1.34v-1Zm2.868 1.74c-.474-.64-1.267-1.74-2.867-1.74v1c1.05 0 1.574.675 2.064 1.335l.803-.595Zm.004.005-.004-.005-.803.595.003.005.804-.595Zm.562.578a.183.183 0 0 1-.062-.007.193.193 0 0 1-.057-.037c-.088-.073-.21-.218-.443-.534l-.804.594c.22.3.411.545.607.708.235.196.477.276.76.276v-1Zm.56-.576c-.233.315-.355.46-.443.533-.035.029-.051.035-.055.037a.185.185 0 0 1-.062.006v1c.282 0 .524-.08.758-.276.195-.163.385-.407.606-.705l-.804-.595Zm.004-.005-.004.005.804.595.003-.004-.803-.596Zm2.87-1.74c-1.602 0-2.396 1.1-2.87 1.74l.803.596c.49-.66 1.013-1.336 2.067-1.336v-1Zm2.867 1.74c-.474-.639-1.267-1.74-2.867-1.74v1c1.05 0 1.574.675 2.064 1.336l.803-.596Zm.004.005-.004-.005-.803.596.003.005.804-.596Zm.56.576a.184.184 0 0 1-.062-.007.197.197 0 0 1-.057-.037c-.087-.073-.209-.217-.44-.531l-.805.593c.22.298.41.543.605.706.235.196.477.276.759.276v-1Zm.562-.578c-.233.316-.355.46-.443.534a.192.192 0 0 1-.057.037.181.181 0 0 1-.062.007v1c.282 0 .524-.08.759-.276.196-.163.386-.409.607-.708l-.804-.594Zm2.871-1.745c-1.603 0-2.399 1.105-2.871 1.745l.804.594c.488-.66 1.014-1.34 2.067-1.34v-1Zm2.87 1.74c-.474-.64-1.267-1.74-2.87-1.74v1c1.054 0 1.578.675 2.067 1.335l.803-.595Zm.004.004-.004-.004-.803.596.003.004.804-.596Zm.56.577a.18.18 0 0 1-.06-.007.196.196 0 0 1-.057-.037c-.088-.074-.21-.218-.443-.533l-.804.596c.221.298.412.542.607.705.234.195.475.276.757.276v-1Zm.143.483c-.202-.457-.201-.458-.201-.458h.001l.002-.001.004-.002.007-.003a.254.254 0 0 1 .036-.012.276.276 0 0 1 .03-.008c.01-.002.005 0-.022 0v1a1.123 1.123 0 0 0 .28-.035.656.656 0 0 0 .05-.017l.008-.003.004-.002h.002v-.001l-.2-.458Zm-.306-.612a8.186 8.186 0 0 1-.115.345.246.246 0 0 1 .008-.012.393.393 0 0 1 .034-.046l.76.65c.067-.079.105-.172.117-.2.021-.048.04-.102.058-.151.035-.1.07-.211.094-.29l-.956-.296ZM7.288 31.136c-.12-.145-1.21-1.405-2.608-1.405-.646 0-1.57.268-2.297 1.542l-.812 1.424h7.02l-1.303-1.561Z"/><path fill-rule="evenodd" clip-rule="evenodd" d="m5.464 34.575.966.102-.122.973c-.355 2.63-3.102 5.404-3.22 5.522l-1.272 1.272-.315-1.78c-.374-2.093-.108-3.702.788-4.782 1.253-1.512 3.175-1.307 3.175-1.307ZM3.735 37.1a2.046 2.046 0 0 0-.378.752c.2-.301.392-.617.557-.935a1.64 1.64 0 0 0-.179.183Z"/><path d="m6.43 34.677.497.062.063-.506-.507-.054-.053.498Zm-.966-.102-.053.497.053-.498Zm.844 1.075.496.067v-.005l-.496-.062Zm-3.22 5.522.354.354.002-.002-.355-.352Zm-1.272 1.272-.492.087.167.945.679-.678-.354-.354Zm-.315-1.78.493-.087-.493.087Zm.788-4.782.385.32-.385-.32Zm1.068 1.97-.48-.14-.054.186.085.174.449-.22Zm.378-.752.384.32.003-.003-.387-.317Zm-.378.752-.45.22.385.783.481-.727-.416-.276Zm.557-.935.444.23-.777-.603.333.373Zm2.569-2.738-.967-.102-.105.995.967.102.105-.995Zm.321 1.533.123-.973-.993-.125-.122.973.992.125Zm-3.36 5.812c.067-.068.804-.812 1.571-1.88.759-1.054 1.594-2.487 1.789-3.927l-.991-.134c-.161 1.19-.876 2.458-1.61 3.477a15.357 15.357 0 0 1-1.47 1.76l.71.704ZM2.17 42.798l1.272-1.272-.707-.708-1.272 1.273.707.707ZM1.009 40.75l.315 1.78.985-.174-.315-1.78-.985.174Zm.895-5.188c-1.03 1.24-1.281 3.026-.895 5.19l.984-.177c-.361-2.023-.081-3.456.68-4.374l-.769-.64Zm3.56-.989.052-.497h-.012l-.023-.003a3.91 3.91 0 0 0-.348-.008c-.225.005-.537.03-.892.107-.71.154-1.618.523-2.337 1.39l.77.638c.535-.645 1.215-.929 1.778-1.05a3.765 3.765 0 0 1 .903-.083l.048.003h.01s0 .001 0 0h-.001l.052-.496Zm-1.627 3.418a1.55 1.55 0 0 1 .282-.571l-.767-.642a2.548 2.548 0 0 0-.475.933l.96.28Zm-.031-.36-.898.44.898-.44Zm-.336-.945a9.695 9.695 0 0 1-.53.889l.833.552c.207-.31.41-.642.585-.981l-.888-.46Zm.652.73c.034-.041.074-.082.125-.127l-.666-.746a2.135 2.135 0 0 0-.232.239l.773.634Z"/><path fill-rule="evenodd" clip-rule="evenodd" d="M12.707 29.291c0 .992-.802 1.8-1.785 1.8a1.793 1.793 0 0 1-1.783-1.8c0-.992.8-1.799 1.783-1.799.985 0 1.785.807 1.785 1.8Zm-1.687 0a.1.1 0 0 0-.098-.1.098.098 0 0 0-.097.1c0 .11.195.11.195 0Z"/><path d="M10.922 31.59a2.295 2.295 0 0 0 2.285-2.299h-1c0 .72-.582 1.3-1.285 1.3v1Zm-2.283-2.299a2.293 2.293 0 0 0 2.283 2.3v-1a1.293 1.293 0 0 1-1.283-1.3h-1Zm2.283-2.299a2.293 2.293 0 0 0-2.283 2.3h1c0-.72.58-1.3 1.283-1.3v-1Zm2.285 2.3a2.293 2.293 0 0 0-2.285-2.3v1c.705 0 1.285.58 1.285 1.3h1Zm-2.285.4a.4.4 0 0 1-.402-.4h1a.6.6 0 0 0-.598-.6v1Zm.403-.4c0 .2-.162.4-.403.4v-1a.598.598 0 0 0-.597.6h1Zm-.805 0c0-.143.072-.267.171-.34a.387.387 0 0 1 .232-.079c.06 0 .147.016.232.079.098.073.17.197.17.34h-1c0 .196.097.36.232.461a.613.613 0 0 0 .732 0 .574.574 0 0 0 .231-.462h-1Z"/></symbol><symbol viewBox="0 0 25 52" id="surfboard" xmlns="http://www.w3.org/2000/svg"><g filter="url(#ia)"><path fill-rule="evenodd" clip-rule="evenodd" d="M5 20.583C5 7.503 10.422.445 12.639.444c2.217.001 7.639 7.058 7.639 20.14 0 13.216-4.743 22.176-4.945 22.551l-.196.365h-4.996l-.197-.365C9.744 42.76 5 33.8 5 20.583Zm6.945-18.295Zm0 0v21.768h1.389V2.288c1.777 1.587 5.555 7.36 5.555 18.295 0 3.65-.384 6.98-.93 9.887-.804-1.144-2.282-2.701-4.974-4.24-6.547-3.74-6.467-8.878-6.462-9.095h-.002C7.204 8.42 10.365 3.7 11.945 2.288Zm-5.42 21.936a51.331 51.331 0 0 1-.113-2.526c.993 1.846 2.755 3.951 5.883 5.74 4.446 2.54 5.207 5.054 5.226 5.117a52.613 52.613 0 0 1-1.087 4.023c-.585-1.036-1.616-2.31-3.437-3.396-5.485-3.265-6.35-8.003-6.472-8.958Zm6.809 17.887h.96a38.37 38.37 0 0 0 1.47-3.542c-.136-.578-.785-2.59-3.48-4.194-2.449-1.46-4.06-3.198-5.124-4.826 1.137 6.661 3.2 11.274 3.825 12.562h.96V37.25h1.389v4.861Z"/><path d="M12.639.444V.32v.125Zm2.694 42.691.11.06-.11-.06Zm-.196.365v.125h.075l.035-.066-.11-.06Zm-4.996 0-.11.059.035.066h.075V43.5Zm-.197-.365-.11.06.11-.06Zm2-40.847-.04-.118-.084.029v.09h.125Zm0 0 .084.093-.123-.211.04.118Zm0 21.768h-.124v.125h.125v-.125Zm1.39 0v.125h.125v-.125h-.125Zm0-21.768.083-.093-.208-.186v.28h.125Zm4.625 28.182-.103.072.17.243.055-.291-.122-.024Zm-4.974-4.24-.062.11.062-.11Zm-6.462-9.095.125.003.003-.128h-.128v.125Zm-.002 0-.124-.01-.01.135h.134v-.125Zm-.109 4.563.11-.059-.235.062.125-.003Zm.113 2.526-.125.01v.006l.125-.016Zm5.77 3.213-.062.109.062-.108Zm5.226 5.118-.12.036.12-.036Zm0 0 .122.029.007-.033-.01-.032-.119.037Zm-1.087 4.023-.108.062.141.25.087-.274-.12-.038Zm-3.437-3.396.064-.107-.064.107Zm1.297 8.93v.124h.215l-.107-.187-.108.062Zm-.96 0h-.125v.124h.125v-.125Zm.96-.001-.113-.054-.029.059.033.057.108-.062Zm1.47-3.542.117.043.013-.035-.008-.036-.122.028Zm-3.48-4.194-.063.107.064-.107ZM7.16 29.549l.104-.069-.227.09.123-.021Zm3.825 12.562-.113.055.034.07h.079v-.125Zm.96 0v.125h.125v-.125h-.125Zm0-4.861v-.125h-.125v.125h.125Zm1.389 0h.125v-.125h-.125v.125ZM12.639.32c-.309 0-.659.122-1.03.347-.372.225-.774.56-1.19.999-.83.878-1.723 2.18-2.544 3.889-1.641 3.417-3 8.47-3 15.028h.25c0-6.523 1.352-11.54 2.976-14.92.812-1.691 1.69-2.97 2.5-3.825.404-.428.79-.746 1.138-.958.35-.212.654-.31.9-.31V.32Zm7.764 20.263c0-6.557-1.36-11.61-3-15.029-.821-1.708-1.713-3.01-2.544-3.888-.416-.439-.818-.774-1.19-1-.372-.224-.722-.346-1.03-.347v.25c.246 0 .55.1.9.311.348.212.734.53 1.138.958.81.854 1.688 2.134 2.5 3.825 1.624 3.38 2.976 8.396 2.976 14.92h.25Zm-4.96 22.611c.207-.384 4.96-9.365 4.96-22.61h-.25c0 13.187-4.734 22.127-4.93 22.492l.22.118Zm-.196.365.196-.365-.22-.118-.196.364.22.119Zm-5.106.066h4.996v-.25h-4.996v.25Zm-.307-.43.197.364.22-.118-.196-.365-.22.118ZM4.875 20.582c0 13.246 4.753 22.227 4.96 22.611l.22-.118c-.197-.366-4.93-9.305-4.93-22.493h-.25ZM11.82 2.288h.25-.25Zm.085-.118.08.237-.08-.237Zm.123.211-.167-.186.167.186Zm.042 21.675V2.288h-.25v21.768h.25Zm1.264-.125h-1.39v.25h1.39v-.25Zm-.125-21.643v21.768h.25V2.288h-.25Zm5.805 18.295c0-10.961-3.786-16.772-5.597-18.388l-.167.186c1.745 1.558 5.514 7.293 5.514 18.202h.25Zm-.933 9.91c.549-2.914.933-6.252.933-9.91h-.25c0 3.64-.383 6.963-.928 9.864l.245.047Zm-5.158-4.154c2.677 1.53 4.14 3.075 4.933 4.203l.205-.143c-.815-1.16-2.307-2.73-5.014-4.277l-.124.217Zm-6.525-9.207c-.006.244-.076 5.435 6.525 9.207l.124-.217c-6.493-3.71-6.404-8.794-6.4-8.984l-.249-.006Zm.123.128h.002v-.25h-.002v.25Zm5.34-15.065c-1.61 1.438-4.78 6.19-5.464 14.93l.249.02c.68-8.693 3.832-13.379 5.382-14.764l-.167-.186ZM6.287 21.701c.02.86.054 1.707.113 2.532l.25-.018a51.216 51.216 0 0 1-.113-2.52l-.25.006Zm6.07 5.628c-3.107-1.777-4.853-3.865-5.835-5.69l-.22.119c1.004 1.866 2.783 3.988 5.931 5.788l.124-.217Zm5.284 5.19c-.028-.093-.81-2.632-5.284-5.19l-.124.217c4.417 2.524 5.158 5.011 5.168 5.045l.24-.072Zm0 0-.24.073.24-.073Zm-1.087 4.097a52.83 52.83 0 0 0 1.089-4.032l-.244-.056a52.572 52.572 0 0 1-1.084 4.013l.239.075Zm-3.621-3.326c1.8 1.073 2.817 2.33 3.393 3.35l.217-.123c-.595-1.054-1.64-2.345-3.482-3.442l-.128.215ZM6.4 24.24c.124.975 1.002 5.757 6.532 9.05l.128-.215c-5.439-3.238-6.293-7.932-6.412-8.867l-.248.032Zm7.893 17.746h-.96v.25h.96v-.25Zm-.109.187.217-.124-.217.124Zm1.461-3.646a37.723 37.723 0 0 1-1.465 3.53l.225.108c.277-.572.838-1.795 1.475-3.553l-.235-.085Zm-3.425-4.045c2.658 1.583 3.291 3.562 3.421 4.116l.244-.057c-.142-.603-.807-2.648-3.537-4.273l-.128.214Zm-5.166-4.865c1.074 1.643 2.699 3.395 5.166 4.865l.128-.215c-2.432-1.449-4.03-3.173-5.085-4.787l-.209.137Zm4.042 12.44c-.621-1.281-2.68-5.882-3.814-12.53l-.246.043c1.14 6.676 3.206 11.3 3.835 12.596l.225-.11Zm.848-.07h-.96v.25h.96v-.25Zm-.125-4.737v4.861h.25V37.25h-.25Zm1.514-.125h-1.39v.25h1.39v-.25Zm.125 4.986V37.25h-.25v4.861h.25Z"/></g><defs><filter id="ia" x=".875" y=".319" width="23.528" height="51.305" filterUnits="userSpaceOnUse" color-interpolation-filters="sRGB"><feFlood flood-opacity="0" result="BackgroundImageFix"/><feColorMatrix in="SourceAlpha" values="0 0 0 0 0 0 0 0 0 0 0 0 0 0 0 0 0 0 127 0" result="hardAlpha"/><feOffset dy="4"/><feGaussianBlur stdDeviation="2"/><feColorMatrix values="0 0 0 0 0 0 0 0 0 0 0 0 0 0 0 0 0 0 0.25 0"/><feBlend in2="BackgroundImageFix" result="effect1_dropShadow_0_2964"/><feBlend in="SourceGraphic" in2="effect1_dropShadow_0_2964" result="shape"/></filter></defs></symbol><symbol viewBox="0 0 52 33" id="travel" xmlns="http://www.w3.org/2000/svg"><path fill-rule="evenodd" clip-rule="evenodd" d="M49.75 22.276v2.747c.57.116 1 .616 1 1.212v.987c0 .6-.43 1.098-1 1.214v.025h-6.565c-.363 2.24-2.322 3.958-4.686 3.958-2.363 0-4.322-1.718-4.683-3.958H16.435c-.363 2.24-2.322 3.958-4.686 3.958-2.363 0-4.324-1.72-4.685-3.958H3.249l-.748.002a1.247 1.247 0 0 1-1.252-1.239v-.988c0-.684.563-1.238 1.252-1.238h.748V13.867c0-3.412 2.805-6.187 6.252-6.187l5.77-.004V5.703C9.185 5.129 4.029 4.056 2.468 2.512a.733.733 0 0 1-.134-.868.752.752 0 0 1 .796-.387c4.977.882 12.715 1 19.626 1a1029.147 1029.147 0 0 0 5.345-.014c.914-.003 1.8-.006 2.649-.006l6.437.002h.002c4.358 0 7.041-.029 10.522-.197a.758.758 0 0 1 .757.537.74.74 0 0 1-.353.853c-.502.278-1.127.537-1.867.777V5.71a1.7 1.7 0 0 1-.963 1.549 1.773 1.773 0 0 1-.793.19c-.363 0-.725-.115-1.037-.345l-2.42-1.776c-3.082.444-6.898.726-11.285.827v1.527l5.248-.002c3.344 0 6.428 1.107 8.904 2.969l.205.158a14.658 14.658 0 0 1 4.66 6.24l.006.012.014.033.043.113.037.096.299.767h-.043c.406 1.334.627 2.747.627 4.208ZM36 16.586h10.932a13.23 13.23 0 0 0-3.553-4.453H36a.253.253 0 0 0-.25.247v3.958c0 .134.115.248.25.248ZM44.75 5.71a.23.23 0 0 1-.139.223.232.232 0 0 1-.261-.024l-1.258-.921a33.19 33.19 0 0 0 1.658-.358v1.08ZM26.09 3.736c-1.086.003-2.2.007-3.332.007-4.44 0-9.22-.05-13.422-.32 4.035.755 9.838 1.288 16.664 1.288 6.273 0 11.76-.363 15.742-1.003-1.357.015-2.824.021-4.55.021h-.002l-6.44-.006c-1.168 0-2.404.004-3.69.01l-.97.003Zm-9.319 2.1c3.01.238 6.186.36 9.229.36.764 0 1.514-.006 2.25-.016v1.5H16.771V5.836ZM8.5 27.719c0 1.774 1.457 3.216 3.25 3.216S15 29.493 15 27.72c0-1.774-1.457-3.216-3.25-3.216S8.5 25.945 8.5 27.719Zm30 3.216c-1.793 0-3.25-1.442-3.25-3.216 0-1.774 1.457-3.216 3.25-3.216s3.25 1.442 3.25 3.216c0 1.774-1.457 3.216-3.25 3.216Zm0-7.916c2.363 0 4.324 1.718 4.685 3.958h6.065v-.495h-4.5v-1.484h3.5v-2.72c0-1.472-.25-2.885-.703-4.207H36c-.965 0-1.75-.777-1.75-1.732V12.38c0-.955.785-1.732 1.75-1.732h5.111a13.294 13.294 0 0 0-6.113-1.485H9.502c-2.621 0-4.752 2.111-4.752 4.703v2.72h7.535v1.484H4.75v6.927h1v1.484h-3v.495h4.314c.364-2.24 2.323-3.958 4.686-3.958s4.324 1.718 4.685 3.958h17.38c.363-2.24 2.322-3.958 4.685-3.958Z"/><path d="m49.75 25.023.084.288.216-.063v-.225h-.3Zm0 0-.084-.288.024.582.06-.294Zm0 3.413-.06-.294-.24.049v.245h.3Zm0 .025v.3h.3v-.3h-.3Zm-6.565 0v-.3h-.255l-.041.252.296.048Zm-9.37 0 .297-.048-.04-.252h-.256v.3Zm-17.38 0v-.3h-.255l-.041.252.296.048Zm-9.371 0 .296-.048-.04-.252h-.256v.3Zm-3.815 0v-.3.3Zm-.748.002v.3h.001v-.3Zm.748-3.465v.3h.3v-.3h-.3ZM9.501 7.68v.3-.3Zm5.77-.004v.3h.3v-.3h-.3Zm0-1.973h.3V5.43l-.272-.026-.028.299ZM2.468 2.512l.211-.214-.21.214Zm-.134-.868-.265-.141.265.14Zm.796-.387-.052.296.052-.296Zm23.924.99v-.3.3Zm1.047-.004v.3-.3Zm0 0-.001-.3.001.3Zm0 0v-.3.3Zm0 0 .002.3-.001-.3Zm0 0v-.3.3Zm2.649-.006v-.3.3Zm6.437.002v.3-.3Zm10.524-.197-.012-.3h-.003l.015.3Zm.757.537.289-.083-.289.083Zm-.353.853.145.262-.145-.262Zm-1.867.777-.093-.286-.207.067v.219h.3Zm-.963 3.05.134.268-.134-.268Zm-1.83-.155.178-.242-.178.242Zm-2.42-1.776.177-.242-.099-.073-.121.018.043.297Zm-11.285.827-.007-.3-.293.007v.293h.3Zm0 1.527h-.3v.3h.3v-.3Zm5.248-.002v-.3.3Zm8.904 2.969.184-.238-.003-.002-.18.24Zm.205.158.185-.237h-.001l-.184.237Zm4.66 6.24-.279.11.005.013.007.013.268-.135Zm.006.012.277-.115-.004-.01-.005-.01-.268.136Zm.014.033.283-.1-.003-.008-.003-.007-.277.115Zm.043.113-.279.11v.001l.279-.111Zm0 0 .28-.108-.001-.004-.279.112Zm0 0-.28.108.002.003.278-.111Zm0 0 .28-.108-.001-.003-.279.111Zm0 0-.28.109.002.003.278-.112Zm0 0 .28-.11-.001-.001-.279.111Zm.037.096-.282.103.003.006.28-.109Zm.299.767v.3h.439l-.16-.408-.279.108Zm-.043 0v-.3h-.405l.118.388.287-.088Zm-2.191-1.482v.3h.48l-.21-.432-.27.132Zm-3.553-4.453.19-.233-.084-.067h-.106v.3Zm1.232-6.2-.133-.27.133.27Zm.139-.223h-.3.3Zm-.4.2.178-.242h-.001l-.177.241Zm-1.258-.923-.056-.294-.678.129.556.407.178-.242Zm1.658-.357h.3v-.382l-.371.09.071.292Zm-18.66-.894.002.3-.001-.3Zm0 0v-.3.3Zm-3.332.007-.027-.299.027.599v-.3Zm0 0 .028.299-.028-.6v.3Zm-13.422-.32.02-.299-.075.595.055-.295Zm32.406.285.048.296-.051-.596.003.3Zm-4.552.021v.3-.3Zm-6.44-.006v-.3.3Zm-3.69.01.002.3-.001-.3ZM16.773 5.836l.023-.3-.324-.025v.325h.3Zm11.478.344h.3v-.304l-.304.004.004.3Zm0 1.5v.3h.3v-.3h-.3Zm-11.479 0h-.3v.3h.3v-.3Zm26.414 19.297-.296.048.041.252h.255v-.3Zm6.065 0v.3h.3v-.3h-.3Zm0-.495h.3v-.3h-.3v.3Zm-4.5 0h-.3v.3h.3v-.3Zm0-1.484v-.3h-.3v.3h.3Zm3.5 0v.3h.3v-.3h-.3Zm-.703-6.927.284-.098-.07-.202h-.214v.3Zm-6.436-7.422v.3l.138-.567-.138.267ZM4.75 16.586h-.3v.3h.3v-.3Zm7.535 0h.3v-.3h-.3v.3Zm0 1.485v.3h.3v-.3h-.3Zm-7.535 0v-.3h-.3v.3h.3Zm0 6.927h-.3v.3h.3v-.3Zm1 0h.3v-.3h-.3v.3Zm0 1.484v.3h.3v-.3h-.3Zm-3 0v-.3h-.3v.3h.3Zm0 .495h-.3v.3h.3v-.3Zm4.314 0v.3h.256l.04-.252-.296-.048Zm9.371 0-.296.048.04.252h.256v-.3Zm17.38 0v.3h.255l.04-.252-.296-.048Zm16.235-1.954v-2.747h-.6v2.747h.6Zm-.217.288-.167-.576.167.576Zm1.217.924c0-.744-.536-1.363-1.24-1.506l-.12.588c.436.088.76.47.76.918h.6Zm0 .987v-.987h-.6v.987h.6Zm-1.24 1.508a1.543 1.543 0 0 0 1.24-1.508h-.6a.943.943 0 0 1-.76.92l.12.588Zm.24-.269v-.025h-.6v.025h.6Zm-6.865.3h6.565v-.6h-6.565v.6ZM38.5 32.72c2.512 0 4.595-1.826 4.982-4.21l-.592-.096c-.34 2.096-2.174 3.706-4.39 3.706v.6Zm-4.98-4.21c.385 2.384 2.47 4.21 4.98 4.21v-.6c-2.215 0-4.049-1.61-4.387-3.706l-.592.096Zm-17.084.252h17.38v-.6h-17.38v.6ZM11.75 32.72c2.512 0 4.595-1.826 4.982-4.21l-.592-.096c-.34 2.096-2.175 3.706-4.39 3.706v.6Zm-4.981-4.21c.384 2.383 2.47 4.21 4.981 4.21v-.6c-2.215 0-4.051-1.612-4.389-3.706l-.592.096Zm-3.519.252h3.815v-.6H3.249v.6Zm-.747.002.748-.002-.001-.6-.748.002.001.6ZM.95 27.224c0 .85.698 1.539 1.552 1.539v-.6a.947.947 0 0 1-.952-.939h-.6Zm0-.988v.988h.6v-.988h-.6Zm1.552-1.538c-.852 0-1.552.685-1.552 1.538h.6c0-.515.425-.938.952-.938v-.6Zm.748 0h-.748v.6h.748v-.6Zm-.3-10.831v11.13h.6v-11.13h-.6ZM9.501 7.38c-3.61 0-6.552 2.907-6.552 6.487h.6c0-3.243 2.668-5.887 5.952-5.887v-.6Zm5.77-.004L9.5 7.38v.6l5.77-.004v-.6Zm-.3-1.673v1.973h.6V5.703h-.6ZM2.257 2.725c.431.426 1.088.801 1.9 1.134.818.334 1.815.635 2.946.904 2.264.537 5.09.95 8.14 1.238l.056-.597c-3.035-.286-5.83-.696-8.057-1.225-1.113-.264-2.078-.557-2.857-.876-.784-.32-1.356-.659-1.706-1.005l-.422.427Zm-.189-1.221c-.214.405-.137.9.19 1.222l.42-.429a.433.433 0 0 1-.08-.513l-.53-.28ZM3.183.962a1.052 1.052 0 0 0-1.114.54l.53.283a.452.452 0 0 1 .479-.232l.105-.591Zm19.573.994c-6.917 0-14.628-.118-19.573-.994l-.105.59c5.008.887 12.774 1.004 19.678 1.004v-.6Zm4.297-.01c-1.386.007-2.83.01-4.297.01v.6c1.469 0 2.913-.003 4.3-.01l-.003-.6Zm1.047-.003-1.047.004.002.6 1.047-.004-.002-.6Zm0 0 .002.6-.002-.6Zm0 0 .002.6-.002-.6Zm0 0 .002.6-.002-.6Zm0 0 .002.6-.002-.6Zm0 0 .002.6-.001-.6Zm0 0 .003.6-.002-.6Zm2.65-.006c-.85 0-1.736.003-2.65.006l.003.6c.913-.003 1.798-.006 2.647-.006v-.6Zm6.437.002-6.437-.002v.6l6.437.002v-.6Zm.002 0h-.002v.6h.002v-.6Zm10.507-.197c-3.473.168-6.151.197-10.507.197v.6c4.36 0 7.048-.029 10.536-.197l-.029-.6Zm1.06.754a1.058 1.058 0 0 0-1.057-.754l.023.6a.458.458 0 0 1 .458.32l.577-.166Zm-.495 1.198a1.04 1.04 0 0 0 .496-1.198l-.577.167a.44.44 0 0 1-.21.506l.29.525Zm-1.92.8c.751-.244 1.395-.51 1.92-.8l-.292-.525c-.48.266-1.085.518-1.814.754l.185.571Zm.207 1.216v-1.5h-.6v1.5h.6Zm-1.13 1.817a2 2 0 0 0 1.13-1.817h-.6a1.4 1.4 0 0 1-.797 1.28l.268.537Zm-.926.223c.316 0 .63-.076.927-.223l-.268-.537a1.47 1.47 0 0 1-.66.16v.6Zm-1.215-.404c.363.267.787.404 1.215.404v-.6c-.299 0-.598-.095-.86-.288l-.355.484Zm-2.42-1.776 2.42 1.776.355-.484-2.42-1.776-.355.484Zm-11.1.885c4.394-.1 8.223-.384 11.32-.83l-.085-.594c-3.066.442-6.87.724-11.249.824l.014.6Zm.293 1.227V6.155h-.6v1.527h.6Zm4.948-.302-5.248.002v.6l5.248-.002v-.6Zm9.085 3.029a15.074 15.074 0 0 0-9.085-3.03v.6a14.47 14.47 0 0 1 8.724 2.91l.36-.48Zm.208.16-.205-.158-.367.475.205.159.367-.475Zm4.756 6.37a14.959 14.959 0 0 0-4.755-6.369l-.369.474a14.36 14.36 0 0 1 4.565 6.113l.56-.218Zm-.006-.015-.006-.011-.535.27.006.012.535-.27Zm.023.053-.014-.033-.554.23.014.034.554-.23Zm.045.117a3.11 3.11 0 0 1-.04-.102l-.565.2c.016.045.033.087.047.123l.558-.22Zm0 0-.558.222.558-.223Zm0 .003-.559.216.56-.216Zm0-.003-.557.222.557-.222Zm.001.003-.56.216.56-.216Zm-.001-.003-.557.223.557-.223Zm.04.104a4.21 4.21 0 0 0-.04-.103l-.558.22.034.089.564-.206Zm.297.762-.3-.768-.558.218.298.767.56-.217Zm-.323.408h.043v-.6h-.043v.6Zm.927 3.908c0-1.491-.225-2.934-.64-4.295l-.574.175a14.12 14.12 0 0 1 .614 4.12h.6Zm-3.118-5.99H36v.6h10.932v-.6Zm0 0v.6-.6Zm-3.742-3.92a12.93 12.93 0 0 1 3.473 4.352l.538-.264a13.53 13.53 0 0 0-3.633-4.554l-.378.466Zm-7.19.067h7.38v-.6H36v.6Zm.05-.053a.055.055 0 0 1-.014.04.05.05 0 0 1-.036.013v-.6a.553.553 0 0 0-.55.547h.6Zm0 3.958V12.38h-.6v3.958h.6Zm-.05-.052a.05.05 0 0 1 .036.013.055.055 0 0 1 .014.04h-.6c0 .302.253.547.55.547v-.6Zm8.744-10.084A.547.547 0 0 0 44.971 6a.544.544 0 0 0 .079-.29h-.6l.001-.004a.085.085 0 0 1 .026-.041c.004-.004.005-.004.001-.002l.266.538Zm-.572-.051c.076.056.17.1.278.11a.55.55 0 0 0 .294-.06l-.266-.537c-.004.002-.004.001.001 0a.082.082 0 0 1 .048.004c.005.002.005.003 0 0l-.355.483Zm-1.258-.922 1.258.922.355-.484-1.258-.921-.355.483Zm1.765-.89c-.51.124-1.058.243-1.643.354l.112.59a33.472 33.472 0 0 0 1.673-.362l-.142-.583Zm.371 1.371V4.63h-.6v1.08h.6ZM26.092 4.036l-.002-.6.002.6Zm-3.334.007c1.132 0 2.247-.004 3.334-.007l-.002-.6c-1.087.003-2.201.007-3.332.007v.6Zm-.027-.599.054.598-.054-.598Zm-13.414.28c4.212.269 9.001.319 13.441.319v-.6c-4.438 0-9.211-.05-13.402-.319l-.039.6ZM26 4.41c-6.812 0-12.596-.532-16.608-1.282l-.11.59C13.338 4.477 19.16 5.01 26 5.01v-.6Zm15.695-1c-3.961.637-9.43 1-15.695 1v.6c6.283 0 11.786-.364 15.79-1.007l-.095-.592Zm-4.503.618c1.727 0 3.195-.006 4.554-.021l-.007-.6c-1.356.015-2.821.021-4.547.021v.6Zm-.002 0h.002v-.6h-.002v.6Zm-6.44-.006 6.44.006v-.6l-6.44-.006v.6Zm-3.688.01c1.285-.006 2.52-.01 3.688-.01v-.6c-1.168 0-2.405.004-3.69.01l.002.6Zm-.97.003.97-.003-.002-.6-.97.003.002.6ZM26 5.896c-3.035 0-6.203-.122-9.205-.36l-.047.6c3.018.237 6.201.36 9.252.36v-.6Zm2.246-.016c-.735.01-1.484.015-2.246.015v.6c.765 0 1.517-.005 2.254-.015l-.008-.6Zm.304 1.8v-1.5h-.6v1.5h.6Zm-11.779.3H28.25v-.6H16.771v.6Zm-.3-2.144V7.68h.6V5.836h-.6Zm-4.721 24.8c-1.63 0-2.95-1.311-2.95-2.917h-.6c0 1.943 1.594 3.516 3.55 3.516v-.6Zm2.95-2.917c0 1.606-1.32 2.916-2.95 2.916v.6c1.956 0 3.55-1.573 3.55-3.516h-.6Zm-2.95-2.916c1.63 0 2.95 1.31 2.95 2.916h.6c0-1.943-1.594-3.516-3.55-3.516v.6ZM8.8 27.719c0-1.606 1.32-2.916 2.95-2.916v-.6c-1.956 0-3.55 1.573-3.55 3.516h.6Zm26.15 0c0 1.943 1.594 3.516 3.55 3.516v-.6c-1.63 0-2.95-1.31-2.95-2.916h-.6Zm3.55-3.516c-1.956 0-3.55 1.573-3.55 3.516h.6c0-1.606 1.32-2.916 2.95-2.916v-.6Zm3.55 3.516c0-1.943-1.594-3.516-3.55-3.516v.6c1.63 0 2.95 1.31 2.95 2.916h.6Zm-3.55 3.516c1.956 0 3.55-1.573 3.55-3.516h-.6c0 1.606-1.32 2.916-2.95 2.916v.6Zm4.982-4.306c-.385-2.384-2.47-4.21-4.982-4.21v.6c2.215 0 4.051 1.61 4.39 3.706l.592-.096Zm5.768-.252h-6.065v.6h6.065v-.6Zm-.3-.195v.495h.6v-.495h-.6Zm-4.2.3h4.5v-.6h-4.5v.6Zm-.3-1.784v1.484h.6v-1.484h-.6Zm3.8-.3h-3.5v.6h3.5v-.6Zm-.3-2.42v2.72h.6v-2.72h-.6Zm-.687-4.11a12.64 12.64 0 0 1 .687 4.11h.6c0-1.507-.256-2.952-.72-4.305l-.567.195ZM36 18.371h11.547v-.6H36v.6Zm-2.05-2.032c0 1.123.922 2.032 2.05 2.032v-.6c-.802 0-1.45-.646-1.45-1.432h-.6Zm0-3.958v3.958h.6V12.38h-.6ZM36 10.349c-1.128 0-2.05.908-2.05 2.032h.6c0-.787.648-1.432 1.45-1.432v-.6Zm5.111 0H36v.6h5.111v-.6Zm-6.113-.885c2.154 0 4.187.527 5.976 1.451l.275-.533a13.594 13.594 0 0 0-6.251-1.518v.6Zm-25.496 0h25.496v-.6H9.502v.6ZM5.05 13.867c0-2.423 1.994-4.403 4.452-4.403v-.6c-2.784 0-5.052 2.242-5.052 5.003h.6Zm0 2.72v-2.72h-.6v2.72h.6Zm7.235-.3H4.75v.6h7.535v-.6Zm.3 1.784v-1.485h-.6v1.485h.6Zm-7.835.3h7.535v-.6H4.75v.6Zm.3 6.627V18.07h-.6v6.927h.6Zm.7-.3h-1v.6h1v-.6Zm.3 1.784v-1.484h-.6v1.484h.6Zm-3.3.3h3v-.6h-3v.6Zm.3.195v-.495h-.6v.495h.6Zm4.014-.3H2.75v.6h4.314v-.6Zm4.686-3.958c-2.512 0-4.595 1.826-4.982 4.21l.592.096c.34-2.096 2.175-3.706 4.39-3.706v-.6Zm4.982 4.21c-.385-2.384-2.47-4.21-4.982-4.21v.6c2.215 0 4.051 1.61 4.39 3.706l.592-.096Zm17.082-.252H16.435v.6h17.38v-.6Zm4.686-3.958c-2.511 0-4.595 1.826-4.982 4.21l.593.096c.34-2.096 2.174-3.706 4.389-3.706v-.6Z"/><path fill-rule="evenodd" clip-rule="evenodd" d="M23.75 12.38v3.958c0 .955-.785 1.732-1.75 1.732h-5c-.965 0-1.75-.777-1.75-1.732V12.38c0-.955.785-1.732 1.75-1.732h5c.965 0 1.75.777 1.75 1.732Zm-7 0v3.958c0 .136.115.248.25.248h5c.135 0 .25-.114.25-.247V12.38a.253.253 0 0 0-.25-.247h-5a.253.253 0 0 0-.25.247Z"/><path d="M24.05 16.338V12.38h-.6v3.958h.6ZM22 18.37c1.128 0 2.05-.908 2.05-2.032h-.6c0 .787-.648 1.432-1.45 1.432v.6Zm-5 0h5v-.6h-5v.6Zm-2.05-2.032c0 1.124.922 2.032 2.05 2.032v-.6c-.802 0-1.45-.645-1.45-1.431h-.6Zm0-3.958v3.958h.6V12.38h-.6ZM17 10.348c-1.128 0-2.05.909-2.05 2.032h.6c0-.786.648-1.432 1.45-1.432v-.6Zm5 0h-5v.6h5v-.6Zm2.05 2.032A2.043 2.043 0 0 0 22 10.348v.6c.802 0 1.45.646 1.45 1.432h.6Zm-7 3.958V12.38h-.6v3.958h.6Zm-.05-.052c.017 0 .028.007.035.013.007.007.015.02.015.04h-.6c0 .305.254.547.55.547v-.6Zm5 0h-5v.6h5v-.6Zm-.05.052c0-.02.009-.033.015-.039a.05.05 0 0 1 .035-.013v.6c.297 0 .55-.245.55-.547h-.6Zm0-3.958v3.958h.6V12.38h-.6Zm.05.053a.05.05 0 0 1-.035-.013.055.055 0 0 1-.015-.04h.6a.553.553 0 0 0-.55-.547v.6Zm-5 0h5v-.6h-5v.6Zm.05-.053a.055.055 0 0 1-.015.04.05.05 0 0 1-.035.013v-.6a.553.553 0 0 0-.55.547h.6Z"/><path fill-rule="evenodd" clip-rule="evenodd" d="M26.5 10.648h5c.965 0 1.75.777 1.75 1.732v3.958c0 .955-.785 1.732-1.75 1.732h-5c-.965 0-1.75-.777-1.75-1.732V12.38c0-.955.785-1.732 1.75-1.732Zm5 5.938c.135 0 .25-.114.25-.247V12.38a.253.253 0 0 0-.25-.247h-5a.253.253 0 0 0-.25.247v3.958c0 .134.115.248.25.248h5Z"/><path d="M31.5 10.348h-5v.6h5v-.6Zm2.05 2.032a2.043 2.043 0 0 0-2.05-2.032v.6c.802 0 1.45.646 1.45 1.432h.6Zm0 3.958V12.38h-.6v3.958h.6ZM31.5 18.37c1.128 0 2.05-.908 2.05-2.032h-.6c0 .787-.648 1.432-1.45 1.432v.6Zm-5 0h5v-.6h-5v.6Zm-2.05-2.032c0 1.124.922 2.032 2.05 2.032v-.6c-.802 0-1.45-.645-1.45-1.431h-.6Zm0-3.958v3.958h.6V12.38h-.6Zm2.05-2.032c-1.128 0-2.05.909-2.05 2.032h.6c0-.786.648-1.432 1.45-1.432v-.6Zm4.95 5.99c0-.02.009-.033.015-.039a.05.05 0 0 1 .035-.013v.6c.297 0 .55-.245.55-.547h-.6Zm0-3.958v3.958h.6V12.38h-.6Zm.05.053a.05.05 0 0 1-.035-.013.055.055 0 0 1-.015-.04h.6a.553.553 0 0 0-.55-.547v.6Zm-5 0h5v-.6h-5v.6Zm.05-.053a.055.055 0 0 1-.015.04.05.05 0 0 1-.035.013v-.6a.553.553 0 0 0-.55.547h.6Zm0 3.958V12.38h-.6v3.958h.6Zm-.05-.052a.05.05 0 0 1 .035.013.055.055 0 0 1 .015.04h-.6c0 .302.253.547.55.547v-.6Zm5 0h-5v.6h5v-.6Z"/><path fill-rule="evenodd" clip-rule="evenodd" d="M36.5 27.719c0-1.092.897-1.98 2-1.98s2 .89 2 1.98c0 1.092-.897 1.979-2 1.979s-2-.887-2-1.98Zm1.5 0a.5.5 0 0 0 1 0 .498.498 0 0 0-.5-.495c-.275 0-.5.222-.5.495Z"/><path d="M38.5 25.44c-1.266 0-2.3 1.018-2.3 2.279h.6c0-.924.76-1.68 1.7-1.68v-.6Zm2.3 2.279c0-1.259-1.034-2.28-2.3-2.28v.6c.94 0 1.7.758 1.7 1.68h.6Zm-2.3 2.279c1.266 0 2.3-1.019 2.3-2.28h-.6c0 .924-.76 1.68-1.7 1.68v.6Zm-2.3-2.28a2.292 2.292 0 0 0 2.3 2.28v-.6c-.94 0-1.7-.756-1.7-1.68h-.6Zm2.3.196a.198.198 0 0 1-.2-.195h-.6c0 .441.362.795.8.795v-.6Zm.2-.195a.198.198 0 0 1-.2.195v.6c.438 0 .8-.354.8-.795h-.6Zm-.2-.195c.113 0 .2.09.2.195h.6a.798.798 0 0 0-.8-.795v.6Zm-.2.195c0-.104.087-.195.2-.195v-.6c-.438 0-.8.354-.8.795h.6Z"/><path fill-rule="evenodd" clip-rule="evenodd" d="M9.75 27.719c0-1.092.896-1.98 2-1.98s2 .89 2 1.98c0 1.092-.896 1.979-2 1.979s-2-.89-2-1.98Zm1.5 0a.5.5 0 0 0 1 0 .498.498 0 0 0-.5-.495c-.275 0-.5.222-.5.495Z"/><path d="M11.75 25.44c-1.266 0-2.3 1.018-2.3 2.279h.6c0-.924.76-1.68 1.7-1.68v-.6Zm2.3 2.279c0-1.259-1.034-2.28-2.3-2.28v.6c.94 0 1.7.758 1.7 1.68h.6Zm-2.3 2.279c1.266 0 2.3-1.019 2.3-2.28h-.6c0 .924-.76 1.68-1.7 1.68v.6Zm-2.3-2.28c0 1.26 1.034 2.28 2.3 2.28v-.6c-.94 0-1.7-.758-1.7-1.68h-.6Zm2.3.196a.198.198 0 0 1-.2-.195h-.6c0 .441.362.795.8.795v-.6Zm.2-.195a.198.198 0 0 1-.2.195v.6c.438 0 .8-.354.8-.795h-.6Zm-.2-.195c.113 0 .2.09.2.195h.6a.798.798 0 0 0-.8-.795v.6Zm-.2.195c0-.104.087-.195.2-.195v-.6c-.438 0-.8.354-.8.795h.6ZM17.25 24.997h15.5v1.485h-15.5v-1.485Z"/></symbol><symbol viewBox="0 0 40 25" id="wave" xmlns="http://www.w3.org/2000/svg"><path d="m26.358 4.754.262-.236c.175-.155.345-.313.51-.469.162-.166.353-.276.521-.417.173-.135.34-.274.509-.399.35-.224.676-.472 1.007-.662.33-.184.638-.387.944-.525l.434-.224.409-.181c.52-.241.95-.388 1.247-.496.297-.096.457-.146.457-.146l.015-.005a.18.18 0 0 0 .116-.116.181.181 0 0 0-.116-.226s-.18-.057-.509-.117C32 .51 31.792.47 31.551.454c-.243-.02-.526-.05-.84-.04-.158.002-.325-.002-.5.008l-.547.05c-.386.027-.79.115-1.23.204-.224.037-.442.107-.67.177l-.706.22c-.462.194-.968.386-1.46.649-.242.136-.492.278-.743.429l-.38.228-.363.264c-.24.184-.487.37-.738.56-.26.183-.465.42-.703.638l-.701.685c-.212.251-.423.507-.63.771-.205.266-.428.53-.617.812-.181.287-.352.585-.53.882-.168.304-.356.595-.506.918-.146.329-.282.665-.42 1.002a35.75 35.75 0 0 0-.404 1.016l-.268.954-.27.96-.15.53-.118.436c-.042.147-.075.295-.122.44l-.158.423-.158.427c-.054.142-.124.274-.186.414a12.419 12.419 0 0 1-1.974 3.037 14.841 14.841 0 0 1-2.693 2.38c-.976.677-2.008 1.22-3.022 1.678a23.313 23.313 0 0 1-2.967 1.082 30.126 30.126 0 0 1-4.696.962 18.65 18.65 0 0 1-1.824.155.175.175 0 0 0-.17.151.174.174 0 0 0 .152.195h.004s.68.086 1.87.11c.595.014 1.32.008 2.152-.044a26.64 26.64 0 0 0 2.791-.306c2.031-.342 4.422-.962 6.775-2.242 1.174-.637 2.337-1.436 3.375-2.434a15.046 15.046 0 0 0 2.694-3.444c.092-.161.191-.317.276-.482l.244-.495c.165-.331.325-.665.457-1.006l.21-.51.052-.128.026-.063.007-.017-.017.051.012-.028.098-.23.395-.917.394-.909c.148-.253.285-.505.42-.756.134-.251.27-.499.392-.752.137-.247.302-.487.447-.73.144-.244.289-.485.424-.729.15-.233.314-.449.463-.673.157-.221.296-.45.448-.668l.485-.607.238-.301c.076-.103.154-.203.242-.288l.506-.535.239-.264Z"/><path fill-rule="evenodd" clip-rule="evenodd" d="M38.83 23.451c.636.284 1.007.422 1.007.422a.119.119 0 0 1 .072.153.125.125 0 0 1-.138.077s-.398-.077-1.08-.251a26.819 26.819 0 0 1-2.792-.893l-.275-.107a27.668 27.668 0 0 1-.61-.242l-.432-.19a38.979 38.979 0 0 1-.503-.22l-.37-.181-.602-.298-.74-.416-.253-.141-.318-.203-.682-.434a26.509 26.509 0 0 1-.704-.521 66.11 66.11 0 0 0-.28-.212l-.503-.44-.445-.391a69.294 69.294 0 0 0-.267-.281 34.278 34.278 0 0 1-.617-.657l-.404-.516-.201-.26-.103-.13-.025-.031-.014-.017-.002-.005s.017.031-.03-.05l-.006-.008-.041-.063-.326-.5c-.033-.054-.067-.104-.1-.154a2.46 2.46 0 0 1-.224-.382l-.153-.306c-.161-.317-.324-.637-.41-.964a33.435 33.435 0 0 0-.044-.13c-.056-.171-.113-.341-.156-.514l-.046-.285-.062-.389a4.58 4.58 0 0 0-.016-.13 2.792 2.792 0 0 1-.022-.206l.003-.342.006-.194c.003-.161.007-.321.032-.48.028-.174.064-.343.1-.511l.031-.15c.026-.144.082-.284.138-.42.028-.07.055-.137.079-.205l.12-.299c.028-.064.065-.126.102-.187a10.38 10.38 0 0 0 .154-.256c.076-.126.15-.25.235-.363l.032-.038c.256-.3.5-.586.798-.798.216-.196.468-.329.705-.454.067-.036.133-.07.197-.106.113-.05.228-.089.34-.126A8.955 8.955 0 0 0 29.148 8c.132-.044.259-.087.393-.1a3.723 3.723 0 0 1 1.465-.006c.196.042.364.088.507.13a6.638 6.638 0 0 1 .623.304c.06.035.08.111.045.171a.122.122 0 0 1-.09.062l-.017.003-.29.043c-.076.014-.164.024-.264.036l-.066.007a8.704 8.704 0 0 0-.133.039c-.091.026-.189.055-.29.08a1.271 1.271 0 0 0-.328.12 3.441 3.441 0 0 1-.156.069 1.48 1.48 0 0 0-.338.176 3.415 3.415 0 0 1-.17.103c-.117.07-.226.163-.336.256-.053.045-.106.09-.16.133-.05.059-.101.114-.154.168-.1.106-.2.21-.278.344-.276.36-.466.813-.572 1.303a1.49 1.49 0 0 1-.03.136c-.02.078-.04.155-.038.24l-.007.09a4.494 4.494 0 0 1-.028.306c-.007.073-.003.15.002.227.003.063.007.126.004.188v.053c0 .052.001.105-.001.158.002.05.01.1.018.151a2.986 2.986 0 0 1 .033.3l.02.214c.037.151.07.306.1.462.03.21.088.399.147.591.032.107.066.214.094.327.017.102.077.233.138.364l.07.154.246.544.03.068.003.005.003.007.069.116.14.23.28.465.378.495.292.38.758.819c.272.254.543.507.813.756l.28.234.563.466.859.637c.29.197.577.39.854.576l.833.519c.173.103.344.2.512.296a29.384 29.384 0 0 0 1.72.908c.436.21.818.387 1.136.528Zm-9.51-7.466c0-.001 0-.002-.002-.002l.009.014.003.004a.252.252 0 0 1-.01-.017Z"/><path d="M31.488 2.852a7.76 7.76 0 0 0-1.275.366.09.09 0 0 0-.057.082.086.086 0 0 0 .087.088c.001 0 .517.003 1.276.091.38.037.815.113 1.273.193.458.103.941.196 1.405.342.116.04.233.072.346.115l.33.146c.22.095.426.2.634.271.211.063.416.118.617.155l.583.093c.185.028.364.038.527.046.158.017.304.027.429.027.25.005.417-.013.417-.013l.007-.002.023-.005a.11.11 0 0 0 .065-.14s-.055-.15-.19-.374a3.516 3.516 0 0 0-.267-.385 3.618 3.618 0 0 0-.416-.416 3.753 3.753 0 0 0-.26-.213c-.096-.06-.192-.128-.298-.186a2.602 2.602 0 0 0-.69-.31 3.201 3.201 0 0 0-.796-.129c-.275-.024-.55-.036-.825-.05-.273-.024-.545-.021-.811-.026-.266-.007-.529.02-.78.033-.252.03-.492.043-.72.085a16.01 16.01 0 0 0-.634.116Zm5.622 6.151c.166.074.295.157.425.217.238.133.404.213.404.213l.01.005c.013.007.028.01.045.01a.1.1 0 0 0 .096-.101l-.003-.128c-.005-.084-.01-.208-.044-.36-.036-.147-.08-.335-.172-.528a3.073 3.073 0 0 0-.358-.625 6.06 6.06 0 0 0-.257-.318c-.099-.098-.197-.207-.308-.304a3.58 3.58 0 0 0-.753-.525 4.275 4.275 0 0 0-.904-.326c-.314-.085-.632-.151-.944-.224a12.705 12.705 0 0 0-1.837-.293 15.37 15.37 0 0 0-1.6-.06c-.932.012-1.545.105-1.545.105a.09.09 0 0 0-.075.07.088.088 0 0 0 .07.103s.6.115 1.476.346c.437.113.94.26 1.47.435.264.085.531.188.804.284.27.1.54.21.803.328.263.12.517.256.751.406.238.147.459.299.682.422.223.121.437.227.651.32l.595.278c.19.09.364.175.517.25Zm-.928 2.086a2.324 2.324 0 0 0-.253-.386 1.62 1.62 0 0 0-.364-.34c-.14-.1-.31-.16-.477-.225-.17-.056-.34-.111-.505-.173a7.092 7.092 0 0 0-.981-.274 7.55 7.55 0 0 0-.866-.128c-.505-.052-.848-.03-.848-.03a.076.076 0 0 0-.061.042.072.072 0 0 0 .034.096s.301.141.734.367c.214.118.458.26.714.414l.384.243c.132.08.256.173.383.26.121.092.237.194.344.299.1.11.207.207.31.29.102.083.225.138.335.195.108.058.226.1.334.143.103.045.21.081.312.111.103.03.185.065.266.087.16.048.276.068.276.068l.005.001a.096.096 0 0 0 .111-.076s.02-.11.009-.29a1.541 1.541 0 0 0-.05-.32 2.534 2.534 0 0 0-.146-.374Z"/></symbol><symbol viewBox="0 0 26 24" id="wind" xmlns="http://www.w3.org/2000/svg"><path d="M17.334 8.71H0v2.166h17.334A5.423 5.423 0 0 0 22.75 5.46 5.423 5.423 0 0 0 17.334.044a5.423 5.423 0 0 0-5.417 5.416h2.167a3.254 3.254 0 0 1 3.25-3.25 3.254 3.254 0 0 1 3.25 3.25 3.254 3.254 0 0 1-3.25 3.25Zm3.25 4.334H0v2.166h20.584a3.254 3.254 0 0 1 3.25 3.25 3.254 3.254 0 0 1-3.25 3.25 3.254 3.254 0 0 1-3.25-3.25h-2.167a5.423 5.423 0 0 0 5.417 5.416A5.423 5.423 0 0 0 26 18.46a5.423 5.423 0 0 0-5.416-5.416Z"/></symbol></svg>